<svg width="150" height="39" viewBox="0 0 150 39" fill="none" xmlns="http://www.w3.org/2000/svg">
<path d="M138.055 0.000123694H11.9518C11.4921 0.000123694 11.038 0.000123694 10.5796 0.00202668C10.1958 0.00392966 9.81509 0.00945784 9.42764 0.0141106C8.58593 0.0216291 7.74619 0.077838 6.91573 0.182249C6.08644 0.288933 5.28313 0.490062 4.53296 0.778835C3.78372 1.07005 3.09911 1.44845 2.50397 1.90032C1.90571 2.35092 1.40702 2.87174 1.02706 3.44278C0.646059 4.01267 0.38187 4.62337 0.243619 5.25377C0.104055 5.88338 0.028954 6.52025 0.0189907 7.15866C0.0073581 7.45039 0.00612966 7.74308 0 8.03485V30.0279C0.00612966 30.3233 0.0073581 30.6095 0.0189907 30.9051C0.0289571 31.5435 0.104058 32.1803 0.243619 32.8099C0.381488 33.4406 0.645693 34.0517 1.02706 34.6218C1.40685 35.191 1.90561 35.7097 2.50397 36.1578C3.09685 36.6117 3.7819 36.9903 4.53296 37.2793C5.28312 37.5689 6.08635 37.7712 6.91573 37.8795C7.74633 37.9831 8.58598 38.0393 9.42764 38.0477C9.81509 38.0542 10.1958 38.0579 10.5796 38.0579C11.038 38.0598 11.4922 38.0598 11.9518 38.0598H138.055C138.505 38.0598 138.963 38.0598 139.414 38.0579C139.796 38.0579 140.187 38.0542 140.569 38.0477C141.409 38.0398 142.247 37.9835 143.076 37.8795C143.908 37.7704 144.715 37.5681 145.468 37.2793C146.219 36.9902 146.903 36.6115 147.495 36.1578C148.092 35.7079 148.592 35.1896 148.977 34.6218C149.355 34.0513 149.617 33.4403 149.753 32.8099C149.892 32.1802 149.97 31.5435 149.985 30.9051C149.99 30.6095 149.99 30.3233 149.99 30.0279C150 29.6822 150 29.3384 150 28.9872V9.07368C150 8.72523 150 8.37958 149.99 8.03485C149.99 7.74308 149.99 7.45039 149.985 7.15862C149.97 6.52015 149.892 5.88343 149.753 5.25373C149.616 4.62369 149.355 4.01305 148.977 3.44274C148.203 2.29816 146.976 1.36649 145.468 0.778749C144.715 0.490682 143.908 0.289606 143.076 0.182163C142.248 0.0772924 141.409 0.0210639 140.569 0.0139774C140.187 0.00933414 139.796 0.0037584 139.414 0.00190299C138.963 0 138.505 0 138.055 0V0.000123694Z" fill="#A6A6A6"/>
<path d="M10.5851 37.2266C10.2032 37.2266 9.83048 37.2229 9.45156 37.2164C8.66659 37.2087 7.88345 37.1568 7.10858 37.0613C6.38604 36.9668 5.6861 36.7911 5.03184 36.5399C4.38357 36.2909 3.79231 35.9643 3.28068 35.5726C2.76166 35.1856 2.32954 34.7368 2.00147 34.2439C1.66977 33.7478 1.44022 33.216 1.32081 32.6671C1.19186 32.0773 1.12208 31.4809 1.1121 30.883C1.10415 30.6824 1.09375 30.0142 1.09375 30.0142V8.0342C1.09375 8.0342 1.10483 7.37633 1.11216 7.18305C1.12172 6.58617 1.19109 5.99069 1.31966 5.40179C1.43929 4.85137 1.66902 4.31806 2.00089 3.82032C2.32776 3.32774 2.75748 2.87856 3.27338 2.49018C3.7887 2.09811 4.38186 1.76983 5.03122 1.51731C5.68398 1.26695 6.3826 1.09249 7.10367 0.999751C7.8811 0.903237 8.66695 0.851057 9.45464 0.843649L10.5857 0.832031H139.407L140.552 0.844115C141.332 0.851156 142.111 0.90287 142.881 0.998818C143.609 1.09272 144.315 1.2684 144.976 1.52009C146.277 2.029 147.335 2.83413 148.003 3.82264C148.329 4.31695 148.556 4.84591 148.674 5.39157C148.804 5.98531 148.877 6.58546 148.892 7.18724C148.895 7.4567 148.895 7.74615 148.895 8.0342C148.905 8.39101 148.905 8.73063 148.905 9.07303V28.9865C148.905 29.3322 148.905 29.6695 148.895 30.0096C148.895 30.319 148.895 30.6024 148.89 30.8942C148.876 31.4852 148.804 32.0746 148.676 32.6577C148.559 33.2106 148.331 33.7465 147.999 34.2467C147.669 34.7343 147.239 35.1793 146.726 35.5652C146.214 35.9589 145.622 36.2874 144.972 36.5381C144.314 36.7912 143.609 36.9676 142.881 37.0613C142.106 37.1573 141.323 37.2092 140.538 37.2164C140.171 37.2229 139.786 37.2266 139.413 37.2266L138.054 37.2285L10.5851 37.2266Z" fill="white"/>
</svg>
