<svg width="150" height="39" viewBox="0 0 150 39" fill="none" xmlns="http://www.w3.org/2000/svg">
<path d="M138.055 0.000126483H11.9518C11.4921 0.000126483 11.038 0.000126483 10.5796 0.00207237C10.1958 0.00401826 9.81509 0.00967105 9.42764 0.0144287C8.58593 0.0221167 7.74619 0.0795928 6.91573 0.186358C6.08644 0.295446 5.28313 0.50111 4.53296 0.796393C3.78372 1.09417 3.09911 1.48111 2.50397 1.94316C1.90571 2.40392 1.40702 2.93648 1.02706 3.52039C0.646059 4.10313 0.38187 4.7276 0.243619 5.37221C0.104055 6.01601 0.028954 6.66724 0.0189907 7.32004C0.0073581 7.61835 0.00612966 7.91764 0 8.21599V30.7048C0.00612966 31.0069 0.0073581 31.2996 0.0189907 31.6018C0.0289571 32.2546 0.104058 32.9058 0.243619 33.5495C0.381488 34.1945 0.645693 34.8194 1.02706 35.4023C1.40685 35.9843 1.90561 36.5147 2.50397 36.9729C3.09685 37.437 3.7819 37.8242 4.53296 38.1197C5.28312 38.4158 6.08635 38.6227 6.91573 38.7335C7.74633 38.8394 8.58598 38.8969 9.42764 38.9055C9.81509 38.9121 10.1958 38.9159 10.5796 38.9159C11.038 38.9178 11.4922 38.9178 11.9518 38.9178H138.055C138.505 38.9178 138.963 38.9178 139.414 38.9159C139.796 38.9159 140.187 38.9121 140.569 38.9055C141.409 38.8973 142.247 38.8398 143.076 38.7335C143.908 38.6219 144.715 38.4151 145.468 38.1197C146.219 37.8241 146.903 37.4369 147.495 36.9729C148.092 36.5129 148.592 35.9829 148.977 35.4023C149.355 34.8189 149.617 34.1942 149.753 33.5495C149.892 32.9057 149.97 32.2546 149.985 31.6018C149.99 31.2996 149.99 31.0069 149.99 30.7048C150 30.3514 150 29.9999 150 29.6406V9.27824C150 8.92194 150 8.56848 149.99 8.21599C149.99 7.91764 149.99 7.61835 149.985 7.32C149.97 6.66714 149.892 6.01606 149.753 5.37217C149.616 4.72793 149.355 4.10352 148.977 3.52035C148.203 2.34997 146.976 1.3973 145.468 0.796305C144.715 0.501744 143.908 0.296135 143.076 0.18627C142.248 0.0790349 141.409 0.0215388 140.569 0.0142925C140.187 0.00954457 139.796 0.00384312 139.414 0.00194589C138.963 0 138.505 0 138.055 0V0.000126483Z" fill="#A6A6A6"/>
<path d="M10.5851 38.0666C10.2032 38.0666 9.83048 38.0628 9.45156 38.0562C8.66659 38.0483 7.88345 37.9952 7.10858 37.8975C6.38604 37.8009 5.6861 37.6213 5.03184 37.3645C4.38357 37.1098 3.79231 36.7758 3.28068 36.3754C2.76166 35.9796 2.32954 35.5207 2.00147 35.0167C1.66977 34.5093 1.44022 33.9656 1.32081 33.4043C1.19186 32.8012 1.12208 32.1913 1.1121 31.58C1.10415 31.3748 1.09375 30.6916 1.09375 30.6916V8.2161C1.09375 8.2161 1.10483 7.5434 1.11216 7.34576C1.12172 6.73542 1.19109 6.12652 1.31966 5.52435C1.43929 4.96152 1.66902 4.41618 2.00089 3.90722C2.32776 3.40354 2.75748 2.94423 3.27338 2.54709C3.7887 2.14618 4.38186 1.8105 5.03122 1.55229C5.68398 1.29629 6.3826 1.11789 7.10367 1.02306C7.8811 0.924374 8.66695 0.871018 9.45464 0.863442L10.5857 0.851562H139.407L140.552 0.863919C141.332 0.871118 142.111 0.923998 142.881 1.02211C143.609 1.11812 144.315 1.29777 144.976 1.55514C146.277 2.07551 147.335 2.89879 148.003 3.90959C148.329 4.41504 148.556 4.95593 148.674 5.5139C148.804 6.12101 148.877 6.73469 148.892 7.35004C148.895 7.62558 148.895 7.92155 148.895 8.2161C148.905 8.58095 148.905 8.92823 148.905 9.27835V29.6408C148.905 29.9942 148.905 30.3391 148.895 30.6869C148.895 31.0033 148.895 31.2931 148.89 31.5914C148.876 32.1958 148.804 32.7985 148.676 33.3948C148.559 33.9601 148.331 34.5081 147.999 35.0196C147.669 35.5181 147.239 35.9731 146.726 36.3678C146.214 36.7704 145.622 37.1063 144.972 37.3626C144.314 37.6214 143.609 37.8017 142.881 37.8975C142.106 37.9958 141.323 38.0488 140.538 38.0562C140.171 38.0628 139.786 38.0666 139.413 38.0666L138.054 38.0686L10.5851 38.0666Z" fill="white"/>
<g clip-path="url(#clip0_2328_19408)">
<path d="M18.6683 6.27734C13.0543 6.27734 11 8.33051 11 13.9445V25.9413C11 31.5553 13.0532 33.6073 18.6683 33.6073H30.6582C36.2723 33.6073 38.33 31.5542 38.33 25.9413V13.9445C38.33 8.33051 36.2768 6.27734 30.6616 6.27734H18.6683ZM20.11 10.8323H20.7534C20.7549 11.8693 21.1675 12.8634 21.9007 13.5966C22.634 14.3298 23.628 14.7424 24.665 14.7439C25.7019 14.7424 26.696 14.3298 27.4292 13.5966C28.1625 12.8634 28.5751 11.8693 28.5766 10.8323H29.22C29.22 13.3444 27.1771 15.3873 24.665 15.3873C22.1529 15.3873 20.11 13.3444 20.11 10.8323ZM27.4754 19.9423H28.0676L28.8795 22.402L29.6721 19.9446H30.4236L29.1801 23.5203H28.5743L27.7612 21.171L26.9482 23.5203H26.3469L25.1 19.9446H25.8721L26.6624 22.402L27.4754 19.9423ZM34.5767 19.9423H35.2929V23.5157H34.5767V19.9423ZM14.0359 19.9423H14.7624V21.3851H16.4011V19.9423H17.1265V23.5203H16.4011V22.0672H14.7613V23.5203H14.0359V19.9423ZM20.4903 19.9423H21.2157V21.9602C21.2157 22.9851 20.6509 23.5738 19.667 23.5738C18.6922 23.5738 18.1331 22.9965 18.1331 21.9909V19.9446H18.8574V21.9659C18.8574 22.5626 19.1477 22.8826 19.6761 22.8826C20.2 22.8826 20.4892 22.5717 20.4892 21.9898L20.4903 19.9423ZM23.1596 19.9423H23.8007L25.3699 23.518H24.6092L24.2881 22.7733H22.6494L22.3237 23.518H21.5824L23.1596 19.9423ZM31.009 19.9446H33.6417V20.596H31.7252V21.3282H33.0462V21.9807H31.7252V22.8655H33.7112V23.518H31.0078L31.009 19.9446ZM23.467 20.8476L22.9204 22.1276H24.0182L23.467 20.8476Z" fill="#C9112D"/>
</g>
<path d="M46.5118 6.26527C46.9066 6.23449 47.3027 6.29929 47.6716 6.45499C48.0405 6.6107 48.3731 6.85343 48.6452 7.16568C48.9173 7.47792 49.1223 7.8519 49.2453 8.26064C49.3683 8.66938 49.4063 9.10269 49.3565 9.52931C49.3565 11.6279 48.3126 12.8343 46.5118 12.8343H44.3281V6.26527H46.5118ZM45.2671 11.9053H46.4069C46.689 11.9236 46.9713 11.8733 47.2333 11.7582C47.4952 11.643 47.7302 11.4658 47.9212 11.2395C48.1122 11.0132 48.2543 10.7434 48.3373 10.4499C48.4202 10.1564 48.4419 9.84646 48.4007 9.5427C48.4389 9.24013 48.415 8.93212 48.3308 8.64075C48.2466 8.34938 48.1041 8.08185 47.9136 7.85734C47.723 7.63283 47.4891 7.45689 47.2287 7.34214C46.9682 7.22738 46.6876 7.17665 46.4069 7.19357H45.2671V11.9053Z" fill="black"/>
<path d="M50.4164 10.3534C50.3877 10.0276 50.422 9.69893 50.5171 9.38839C50.6122 9.07786 50.766 8.79234 50.9685 8.55016C51.1711 8.30798 51.4181 8.11448 51.6935 7.98206C51.9689 7.84965 52.2668 7.78125 52.568 7.78125C52.8692 7.78125 53.167 7.84965 53.4425 7.98206C53.7179 8.11448 53.9648 8.30798 54.1674 8.55016C54.37 8.79234 54.5238 9.07786 54.6188 9.38839C54.7139 9.69893 54.7482 10.0276 54.7195 10.3534C54.7488 10.6795 54.7149 11.0087 54.62 11.3197C54.5252 11.6307 54.3716 11.9168 54.1689 12.1594C53.9663 12.4021 53.7192 12.596 53.4435 12.7287C53.1677 12.8614 52.8695 12.93 52.568 12.93C52.2664 12.93 51.9682 12.8614 51.6925 12.7287C51.4168 12.596 51.1697 12.4021 50.967 12.1594C50.7644 11.9168 50.6107 11.6307 50.5159 11.3197C50.4211 11.0087 50.3872 10.6795 50.4164 10.3534ZM53.7934 10.3534C53.7934 9.27884 53.3491 8.65043 52.5695 8.65043C51.7868 8.65043 51.3465 9.27884 51.3465 10.3534C51.3465 11.4366 51.7868 12.0602 52.5695 12.0602C53.3492 12.0601 53.7934 11.4323 53.7934 10.3534H53.7934Z" fill="black"/>
<path d="M60.441 12.8363H59.507L58.564 9.18517H58.4928L57.5538 12.8363H56.6287L55.3711 7.87891H56.2844L57.1016 11.6617H57.1689L58.1069 7.87891H58.9707L59.9087 11.6617H59.9799L60.7933 7.87891H61.6937L60.441 12.8363Z" fill="black"/>
<path d="M62.75 7.87792H63.6168V8.66543H63.684C63.7982 8.38259 63.9907 8.14548 64.2347 7.98716C64.4788 7.82884 64.7622 7.7572 65.0455 7.78222C65.2675 7.76409 65.4904 7.80046 65.6977 7.88864C65.905 7.97682 66.0914 8.11455 66.243 8.29162C66.3947 8.4687 66.5078 8.68058 66.5738 8.91157C66.6399 9.14257 66.6573 9.38675 66.6247 9.62604V12.8352H65.7243V9.87172C65.7243 9.07506 65.4057 8.67888 64.7398 8.67888C64.5891 8.67125 64.4386 8.69912 64.2987 8.76059C64.1588 8.82205 64.0329 8.91565 63.9294 9.03498C63.8259 9.1543 63.7474 9.29652 63.6993 9.45189C63.6511 9.60727 63.6344 9.77212 63.6504 9.93514V12.8353H62.75L62.75 7.87792Z" fill="black"/>
<path d="M68.0586 5.94141H68.959V12.834H68.0586V5.94141Z" fill="black"/>
<path d="M70.2133 10.3535C70.1846 10.0277 70.2189 9.69898 70.314 9.38843C70.4091 9.07789 70.5629 8.79236 70.7655 8.55018C70.9681 8.30799 71.2151 8.11448 71.4905 7.98207C71.766 7.84965 72.0639 7.78125 72.3651 7.78125C72.6663 7.78125 72.9642 7.84965 73.2396 7.98207C73.5151 8.11448 73.762 8.30799 73.9646 8.55018C74.1672 8.79236 74.321 9.07789 74.4161 9.38843C74.5112 9.69898 74.5455 10.0277 74.5169 10.3535C74.5461 10.6796 74.5122 11.0088 74.4173 11.3198C74.3224 11.6309 74.1687 11.9169 73.9661 12.1595C73.7634 12.4022 73.5163 12.5961 73.2406 12.7288C72.9649 12.8615 72.6666 12.93 72.3651 12.93C72.0635 12.93 71.7653 12.8615 71.4896 12.7288C71.2138 12.5961 70.9667 12.4022 70.7641 12.1595C70.5614 11.9169 70.4077 11.6309 70.3129 11.3198C70.218 11.0088 70.1841 10.6796 70.2133 10.3535ZM73.5903 10.3535C73.5903 9.27893 73.146 8.65053 72.3663 8.65053C71.5837 8.65053 71.1434 9.27893 71.1434 10.3535C71.1434 11.4367 71.5837 12.0603 72.3663 12.0603C73.146 12.0602 73.5903 11.4324 73.5903 10.3535H73.5903Z" fill="black"/>
<path d="M75.4648 11.4323C75.4648 10.54 76.0763 10.0255 77.1617 9.95243L78.3976 9.87503V9.44714C78.3976 8.92355 78.079 8.6279 77.4635 8.6279C76.9609 8.6279 76.6126 8.82841 76.5127 9.1789H75.641C75.733 8.3274 76.4701 7.78125 77.5051 7.78125C78.6489 7.78125 79.294 8.39997 79.294 9.44714V12.8343H78.4273V12.1376H78.356C78.2114 12.3875 78.0084 12.5912 77.7676 12.728C77.5268 12.8647 77.257 12.9296 76.9856 12.916C76.7941 12.9376 76.6005 12.9154 76.4174 12.8508C76.2342 12.7862 76.0656 12.6806 75.9223 12.5408C75.779 12.401 75.6643 12.2301 75.5855 12.0392C75.5067 11.8483 75.4656 11.6416 75.4648 11.4323ZM78.3976 11.0087V10.5943L77.2834 10.6717C76.6551 10.7174 76.3702 10.9496 76.3702 11.3866C76.3702 11.8328 76.7264 12.0924 77.2162 12.0924C77.3597 12.1082 77.5047 12.0925 77.6425 12.0461C77.7803 11.9998 77.9081 11.9238 78.0183 11.8227C78.1285 11.7216 78.2189 11.5974 78.2841 11.4576C78.3492 11.3178 78.3878 11.1651 78.3976 11.0087Z" fill="black"/>
<path d="M80.4766 10.3532C80.4766 8.78671 81.2177 7.79438 82.3704 7.79438C82.6555 7.78011 82.9385 7.85431 83.1862 8.00832C83.434 8.16234 83.6363 8.38979 83.7694 8.6641H83.8367V5.94141H84.7371V12.834H83.8743V12.0507H83.8031C83.6596 12.3232 83.4503 12.5478 83.1977 12.7003C82.9452 12.8527 82.6591 12.9272 82.3704 12.9157C81.2097 12.9157 80.4766 11.9234 80.4766 10.3532ZM81.4067 10.3532C81.4067 11.4046 81.8628 12.0373 82.6257 12.0373C83.3846 12.0373 83.8536 11.3955 83.8536 10.3575C83.8536 9.32427 83.3796 8.67329 82.6257 8.67329C81.8677 8.67329 81.4066 9.31029 81.4066 10.3532H81.4067Z" fill="black"/>
<path d="M88.4633 10.3534C88.4346 10.0276 88.4689 9.69893 88.564 9.38839C88.6591 9.07786 88.8128 8.79234 89.0154 8.55016C89.218 8.30798 89.4649 8.11448 89.7404 7.98206C90.0158 7.84965 90.3137 7.78125 90.6149 7.78125C90.916 7.78125 91.2139 7.84965 91.4894 7.98206C91.7648 8.11448 92.0117 8.30798 92.2143 8.55016C92.4169 8.79234 92.5706 9.07786 92.6657 9.38839C92.7608 9.69893 92.7951 10.0276 92.7664 10.3534C92.7956 10.6795 92.7617 11.0087 92.6669 11.3197C92.5721 11.6307 92.4184 11.9168 92.2158 12.1594C92.0132 12.4021 91.766 12.596 91.4903 12.7287C91.2146 12.8614 90.9164 12.93 90.6149 12.93C90.3133 12.93 90.0151 12.8614 89.7394 12.7287C89.4637 12.596 89.2165 12.4021 89.0139 12.1594C88.8113 11.9168 88.6576 11.6307 88.5628 11.3197C88.468 11.0087 88.4341 10.6795 88.4633 10.3534ZM91.8403 10.3534C91.8403 9.27884 91.396 8.65043 90.6163 8.65043C89.8337 8.65043 89.3934 9.27884 89.3934 10.3534C89.3934 11.4366 89.8337 12.0602 90.6163 12.0602C91.396 12.0601 91.8403 11.4323 91.8403 10.3534Z" fill="black"/>
<path d="M93.9727 7.87792H94.8394V8.66543H94.9067C95.0208 8.38259 95.2134 8.14548 95.4574 7.98716C95.7014 7.82884 95.9849 7.7572 96.2682 7.78222C96.4902 7.76409 96.7131 7.80046 96.9204 7.88864C97.1277 7.97682 97.314 8.11455 97.4657 8.29162C97.6174 8.4687 97.7304 8.68058 97.7965 8.91157C97.8625 9.14257 97.8799 9.38675 97.8473 9.62604V12.8352H96.9469V9.87172C96.9469 9.07506 96.6283 8.67888 95.9624 8.67888C95.8117 8.67125 95.6613 8.69912 95.5214 8.76059C95.3815 8.82205 95.2555 8.91565 95.152 9.03498C95.0486 9.1543 94.9701 9.29652 94.9219 9.45189C94.8738 9.60727 94.8571 9.77212 94.8731 9.93514V12.8353H93.9727V7.87792Z" fill="black"/>
<path d="M102.938 6.64453V7.90134H103.927V8.72542H102.938V11.2745C102.938 11.7938 103.135 12.0212 103.583 12.0212C103.698 12.0208 103.813 12.0132 103.927 11.9986V12.8135C103.765 12.845 103.601 12.8617 103.437 12.8635C102.436 12.8635 102.037 12.4808 102.037 11.525V8.72537H101.312V7.90129H102.037V6.64453H102.938Z" fill="black"/>
<path d="M105.152 5.94141H106.045V8.67328H106.116C106.236 8.38779 106.434 8.14934 106.682 7.99042C106.931 7.83151 107.219 7.75986 107.507 7.78523C107.728 7.77217 107.949 7.81224 108.154 7.90256C108.359 7.99288 108.543 8.13123 108.693 8.30775C108.843 8.48427 108.955 8.6946 109.022 8.92374C109.089 9.15288 109.108 9.39518 109.078 9.63335V12.834H108.177V9.87471C108.177 9.08288 107.838 8.68186 107.202 8.68186C107.047 8.66807 106.891 8.69119 106.745 8.7496C106.6 8.808 106.468 8.90029 106.358 9.02C106.249 9.13971 106.165 9.28396 106.112 9.44264C106.059 9.60132 106.039 9.77061 106.053 9.93867V12.8339H105.152L105.152 5.94141Z" fill="black"/>
<path d="M114.327 11.4958C114.204 11.9489 113.939 12.3408 113.578 12.603C113.216 12.8652 112.782 12.981 112.35 12.93C112.049 12.9387 111.75 12.8761 111.474 12.7467C111.198 12.6173 110.951 12.4242 110.751 12.1808C110.55 11.9373 110.401 11.6493 110.313 11.3369C110.225 11.0244 110.201 10.6949 110.242 10.3713C110.202 10.0466 110.227 9.71644 110.314 9.40304C110.402 9.08964 110.551 8.80035 110.75 8.55477C110.949 8.30918 111.195 8.11303 111.47 7.97959C111.746 7.84615 112.044 7.77854 112.346 7.78133C113.615 7.78133 114.381 8.72372 114.381 10.2804V10.6218H111.159V10.6766C111.145 10.8585 111.166 11.0417 111.221 11.2142C111.276 11.3868 111.363 11.545 111.478 11.6787C111.592 11.8124 111.731 11.9187 111.885 11.9907C112.04 12.0627 112.206 12.0988 112.374 12.0968C112.59 12.1249 112.808 12.0828 113.001 11.9757C113.195 11.8687 113.354 11.7017 113.46 11.4958L114.327 11.4958ZM111.159 9.89823H113.464C113.475 9.73185 113.454 9.56473 113.403 9.40761C113.351 9.25049 113.27 9.10684 113.164 8.9859C113.058 8.86496 112.93 8.76939 112.789 8.70534C112.647 8.6413 112.494 8.61019 112.341 8.61401C112.185 8.61189 112.03 8.64365 111.886 8.70745C111.742 8.77124 111.611 8.86576 111.501 8.98545C111.391 9.10513 111.304 9.24755 111.245 9.40432C111.186 9.56109 111.157 9.72902 111.159 9.89823H111.159Z" fill="black"/>
<path d="M51.7041 26.9414L50.9795 24.5625H47.3359L46.6113 26.9414H44.3281L47.8555 16.9062H50.4463L53.9873 26.9414H51.7041ZM50.4736 22.7852L49.749 20.4609C49.7035 20.306 49.6419 20.1077 49.5645 19.8662C49.4915 19.6201 49.4163 19.3717 49.3389 19.1211C49.266 18.8659 49.2067 18.6449 49.1611 18.458C49.1156 18.6449 49.0518 18.8773 48.9697 19.1553C48.8923 19.4287 48.8171 19.6885 48.7441 19.9346C48.6712 20.1807 48.6188 20.3561 48.5869 20.4609L47.8691 22.7852H50.4736ZM58.4443 16.9473C59.734 16.9473 60.6751 17.2253 61.2676 17.7812C61.86 18.3327 62.1562 19.0938 62.1562 20.0645C62.1562 20.502 62.0902 20.9212 61.958 21.3223C61.8258 21.7188 61.6094 22.0719 61.3086 22.3818C61.0124 22.6917 60.6159 22.9378 60.1191 23.1201C59.6224 23.2979 59.0094 23.3867 58.2803 23.3867H57.3711V26.9414H55.252V16.9473H58.4443ZM58.335 18.6836H57.3711V21.6504H58.0684C58.4648 21.6504 58.8089 21.598 59.1006 21.4932C59.3923 21.3883 59.6178 21.2243 59.7773 21.001C59.9368 20.7777 60.0166 20.4906 60.0166 20.1396C60.0166 19.6475 59.8799 19.2829 59.6064 19.0459C59.333 18.8044 58.9092 18.6836 58.335 18.6836ZM67.2354 16.9473C68.5251 16.9473 69.4661 17.2253 70.0586 17.7812C70.651 18.3327 70.9473 19.0938 70.9473 20.0645C70.9473 20.502 70.8812 20.9212 70.749 21.3223C70.6169 21.7188 70.4004 22.0719 70.0996 22.3818C69.8034 22.6917 69.4069 22.9378 68.9102 23.1201C68.4134 23.2979 67.8005 23.3867 67.0713 23.3867H66.1621V26.9414H64.043V16.9473H67.2354ZM67.126 18.6836H66.1621V21.6504H66.8594C67.2559 21.6504 67.5999 21.598 67.8916 21.4932C68.1833 21.3883 68.4089 21.2243 68.5684 21.001C68.7279 20.7777 68.8076 20.4906 68.8076 20.1396C68.8076 19.6475 68.6709 19.2829 68.3975 19.0459C68.124 18.8044 67.7002 18.6836 67.126 18.6836ZM80.2646 21.3291H84.2295V26.5107C83.7054 26.6839 83.1608 26.8229 82.5957 26.9277C82.0306 27.028 81.3903 27.0781 80.6748 27.0781C79.6813 27.0781 78.8382 26.8822 78.1455 26.4902C77.4528 26.0983 76.9264 25.5195 76.5664 24.7539C76.2064 23.9883 76.0264 23.0472 76.0264 21.9307C76.0264 20.8825 76.2269 19.9756 76.6279 19.21C77.0335 18.4443 77.6237 17.8519 78.3984 17.4326C79.1777 17.0133 80.1279 16.8037 81.249 16.8037C81.7777 16.8037 82.2995 16.8607 82.8145 16.9746C83.3294 17.0885 83.7965 17.2367 84.2158 17.4189L83.5117 19.1143C83.2064 18.9593 82.8577 18.8294 82.4658 18.7246C82.0739 18.6198 81.6637 18.5674 81.2354 18.5674C80.6201 18.5674 80.0846 18.7087 79.6289 18.9912C79.1777 19.2738 78.8268 19.6702 78.5762 20.1807C78.3301 20.6865 78.207 21.2835 78.207 21.9717C78.207 22.6234 78.2959 23.2021 78.4736 23.708C78.6514 24.2093 78.9316 24.6035 79.3145 24.8906C79.6973 25.1732 80.1963 25.3145 80.8115 25.3145C81.1123 25.3145 81.3652 25.3008 81.5703 25.2734C81.7799 25.2415 81.9759 25.2096 82.1582 25.1777V23.0928H80.2646V21.3291ZM89.582 19.1416C90.6074 19.1416 91.3936 19.3649 91.9404 19.8115C92.4873 20.2581 92.7607 20.9372 92.7607 21.8486V26.9414H91.3047L90.9014 25.9023H90.8467C90.6279 26.1758 90.4046 26.3991 90.1768 26.5723C89.9489 26.7454 89.6868 26.873 89.3906 26.9551C89.0944 27.0371 88.7344 27.0781 88.3105 27.0781C87.8594 27.0781 87.4538 26.9915 87.0938 26.8184C86.7383 26.6452 86.458 26.3809 86.2529 26.0254C86.0479 25.6654 85.9453 25.2096 85.9453 24.6582C85.9453 23.847 86.2301 23.25 86.7998 22.8672C87.3695 22.4798 88.224 22.2656 89.3633 22.2246L90.6895 22.1836V21.8486C90.6895 21.4476 90.5846 21.1536 90.375 20.9668C90.1654 20.7799 89.8737 20.6865 89.5 20.6865C89.1309 20.6865 88.7686 20.7389 88.4131 20.8438C88.0576 20.9486 87.7021 21.0807 87.3467 21.2402L86.6562 19.832C87.0618 19.6178 87.5153 19.4492 88.0166 19.3262C88.5225 19.2031 89.0443 19.1416 89.582 19.1416ZM90.6895 23.4004L89.8828 23.4277C89.2083 23.446 88.7389 23.5667 88.4746 23.79C88.2148 24.0133 88.085 24.3073 88.085 24.6719C88.085 24.9909 88.1784 25.2188 88.3652 25.3555C88.5521 25.4876 88.7959 25.5537 89.0967 25.5537C89.5433 25.5537 89.9193 25.4215 90.2246 25.1572C90.5345 24.8929 90.6895 24.5169 90.6895 24.0293V23.4004ZM96.999 26.9414H94.9141V16.3047H96.999V26.9414ZM101.278 26.9414H99.1934V16.3047H101.278V26.9414ZM106.604 19.1416C107.629 19.1416 108.415 19.3649 108.962 19.8115C109.509 20.2581 109.782 20.9372 109.782 21.8486V26.9414H108.326L107.923 25.9023H107.868C107.649 26.1758 107.426 26.3991 107.198 26.5723C106.97 26.7454 106.708 26.873 106.412 26.9551C106.116 27.0371 105.756 27.0781 105.332 27.0781C104.881 27.0781 104.475 26.9915 104.115 26.8184C103.76 26.6452 103.479 26.3809 103.274 26.0254C103.069 25.6654 102.967 25.2096 102.967 24.6582C102.967 23.847 103.252 23.25 103.821 22.8672C104.391 22.4798 105.245 22.2656 106.385 22.2246L107.711 22.1836V21.8486C107.711 21.4476 107.606 21.1536 107.396 20.9668C107.187 20.7799 106.895 20.6865 106.521 20.6865C106.152 20.6865 105.79 20.7389 105.435 20.8438C105.079 20.9486 104.724 21.0807 104.368 21.2402L103.678 19.832C104.083 19.6178 104.537 19.4492 105.038 19.3262C105.544 19.2031 106.066 19.1416 106.604 19.1416ZM107.711 23.4004L106.904 23.4277C106.23 23.446 105.76 23.5667 105.496 23.79C105.236 24.0133 105.106 24.3073 105.106 24.6719C105.106 24.9909 105.2 25.2188 105.387 25.3555C105.574 25.4876 105.817 25.5537 106.118 25.5537C106.565 25.5537 106.941 25.4215 107.246 25.1572C107.556 24.8929 107.711 24.5169 107.711 24.0293V23.4004ZM116.201 19.1553C116.306 19.1553 116.427 19.1621 116.563 19.1758C116.705 19.1849 116.819 19.1986 116.905 19.2168L116.748 21.1719C116.68 21.1491 116.582 21.1331 116.454 21.124C116.331 21.1104 116.224 21.1035 116.133 21.1035C115.864 21.1035 115.602 21.1377 115.347 21.2061C115.096 21.2744 114.87 21.3861 114.67 21.541C114.469 21.6914 114.31 21.8919 114.191 22.1426C114.077 22.3887 114.021 22.6917 114.021 23.0518V26.9414H111.936V19.2988H113.515L113.822 20.584H113.925C114.075 20.3242 114.262 20.0872 114.485 19.873C114.713 19.6543 114.971 19.4811 115.258 19.3535C115.549 19.2214 115.864 19.1553 116.201 19.1553ZM117.199 19.2988H119.482L120.925 23.5986C120.97 23.7354 121.009 23.8743 121.041 24.0156C121.073 24.1569 121.1 24.3027 121.123 24.4531C121.146 24.6035 121.164 24.7607 121.178 24.9248H121.219C121.246 24.6787 121.283 24.4486 121.328 24.2344C121.378 24.0202 121.44 23.8083 121.513 23.5986L122.928 19.2988H125.163L121.93 27.9189C121.734 28.4476 121.479 28.8874 121.164 29.2383C120.85 29.5938 120.487 29.8604 120.077 30.0381C119.672 30.2158 119.225 30.3047 118.737 30.3047C118.5 30.3047 118.295 30.291 118.122 30.2637C117.949 30.2409 117.801 30.2158 117.678 30.1885V28.5342C117.773 28.557 117.894 28.5775 118.04 28.5957C118.186 28.6139 118.339 28.623 118.498 28.623C118.79 28.623 119.04 28.5615 119.25 28.4385C119.46 28.3154 119.635 28.1491 119.776 27.9395C119.918 27.7344 120.029 27.5088 120.111 27.2627L120.234 26.8867L117.199 19.2988Z" fill="black"/>
<defs>
<clipPath id="clip0_2328_19408">
<rect width="27.33" height="27.33" fill="white" transform="translate(11 6.27734)"/>
</clipPath>
</defs>
</svg>
