<svg width="150" height="39" viewBox="0 0 150 39" fill="none" xmlns="http://www.w3.org/2000/svg">
<path d="M138.055 0.000123694H11.9518C11.4921 0.000123694 11.038 0.000123694 10.5796 0.00202668C10.1958 0.00392966 9.81509 0.00945784 9.42764 0.0141106C8.58593 0.0216291 7.74619 0.077838 6.91573 0.182249C6.08644 0.288933 5.28313 0.490062 4.53296 0.778835C3.78372 1.07005 3.09911 1.44845 2.50397 1.90032C1.90571 2.35092 1.40702 2.87174 1.02706 3.44278C0.646059 4.01267 0.38187 4.62337 0.243619 5.25377C0.104055 5.88338 0.028954 6.52025 0.0189907 7.15866C0.0073581 7.45039 0.00612966 7.74308 0 8.03485V30.0279C0.00612966 30.3233 0.0073581 30.6095 0.0189907 30.9051C0.0289571 31.5435 0.104058 32.1803 0.243619 32.8099C0.381488 33.4406 0.645693 34.0517 1.02706 34.6218C1.40685 35.191 1.90561 35.7097 2.50397 36.1578C3.09685 36.6117 3.7819 36.9903 4.53296 37.2793C5.28312 37.5689 6.08635 37.7712 6.91573 37.8795C7.74633 37.9831 8.58598 38.0393 9.42764 38.0477C9.81509 38.0542 10.1958 38.0579 10.5796 38.0579C11.038 38.0598 11.4922 38.0598 11.9518 38.0598H138.055C138.505 38.0598 138.963 38.0598 139.414 38.0579C139.796 38.0579 140.187 38.0542 140.569 38.0477C141.409 38.0398 142.247 37.9835 143.076 37.8795C143.908 37.7704 144.715 37.5681 145.468 37.2793C146.219 36.9902 146.903 36.6115 147.495 36.1578C148.092 35.7079 148.592 35.1896 148.977 34.6218C149.355 34.0513 149.617 33.4403 149.753 32.8099C149.892 32.1802 149.97 31.5435 149.985 30.9051C149.99 30.6095 149.99 30.3233 149.99 30.0279C150 29.6822 150 29.3384 150 28.9872V9.07368C150 8.72523 150 8.37958 149.99 8.03485C149.99 7.74308 149.99 7.45039 149.985 7.15862C149.97 6.52015 149.892 5.88343 149.753 5.25373C149.616 4.62369 149.355 4.01305 148.977 3.44274C148.203 2.29816 146.976 1.36649 145.468 0.778749C144.715 0.490682 143.908 0.289606 143.076 0.182163C142.248 0.0772924 141.409 0.0210639 140.569 0.0139774C140.187 0.00933414 139.796 0.0037584 139.414 0.00190299C138.963 0 138.505 0 138.055 0V0.000123694Z" fill="#A6A6A6"/>
<path d="M10.5851 37.2266C10.2032 37.2266 9.83048 37.2229 9.45156 37.2164C8.66659 37.2087 7.88345 37.1568 7.10858 37.0613C6.38604 36.9668 5.6861 36.7911 5.03184 36.5399C4.38357 36.2909 3.79231 35.9643 3.28068 35.5726C2.76166 35.1856 2.32954 34.7368 2.00147 34.2439C1.66977 33.7478 1.44022 33.216 1.32081 32.6671C1.19186 32.0773 1.12208 31.4809 1.1121 30.883C1.10415 30.6824 1.09375 30.0142 1.09375 30.0142V8.0342C1.09375 8.0342 1.10483 7.37633 1.11216 7.18305C1.12172 6.58617 1.19109 5.99069 1.31966 5.40179C1.43929 4.85137 1.66902 4.31806 2.00089 3.82032C2.32776 3.32774 2.75748 2.87856 3.27338 2.49018C3.7887 2.09811 4.38186 1.76983 5.03122 1.51731C5.68398 1.26695 6.3826 1.09249 7.10367 0.999751C7.8811 0.903237 8.66695 0.851057 9.45464 0.843649L10.5857 0.832031H139.407L140.552 0.844115C141.332 0.851156 142.111 0.90287 142.881 0.998818C143.609 1.09272 144.315 1.2684 144.976 1.52009C146.277 2.029 147.335 2.83413 148.003 3.82264C148.329 4.31695 148.556 4.84591 148.674 5.39157C148.804 5.98531 148.877 6.58546 148.892 7.18724C148.895 7.4567 148.895 7.74615 148.895 8.0342C148.905 8.39101 148.905 8.73063 148.905 9.07303V28.9865C148.905 29.3322 148.905 29.6695 148.895 30.0096C148.895 30.319 148.895 30.6024 148.89 30.8942C148.876 31.4852 148.804 32.0746 148.676 32.6577C148.559 33.2106 148.331 33.7465 147.999 34.2467C147.669 34.7343 147.239 35.1793 146.726 35.5652C146.214 35.9589 145.622 36.2874 144.972 36.5381C144.314 36.7912 143.609 36.9676 142.881 37.0613C142.106 37.1573 141.323 37.2092 140.538 37.2164C140.171 37.2229 139.786 37.2266 139.413 37.2266L138.054 37.2285L10.5851 37.2266Z" fill="white"/>
<path d="M37.5737 19.4093C37.5901 18.4428 37.9283 17.4951 38.5568 16.6545C39.1854 15.8138 40.0839 15.1076 41.1686 14.6013C40.4795 13.8542 39.5704 13.2394 38.5135 12.8057C37.4565 12.372 36.2809 12.1313 35.08 12.1028C32.5183 11.8987 30.0348 13.2664 28.7294 13.2664C27.3988 13.2664 25.3889 12.1231 23.2246 12.1569C21.8246 12.1912 20.4603 12.5002 19.2645 13.0538C18.0686 13.6074 17.0821 14.3866 16.401 15.3157C13.4507 19.193 15.6514 24.8914 18.4776 28.0256C19.8916 29.5603 21.5442 31.2746 23.7065 31.2138C25.8225 31.1472 26.6128 30.1896 29.167 30.1896C31.6974 30.1896 32.4389 31.2138 34.6451 31.1752C36.9157 31.1472 38.3462 29.6337 39.7106 28.0844C40.7266 26.9909 41.5084 25.7823 42.027 24.5034C40.7079 24.0799 39.5822 23.371 38.7902 22.4651C37.9983 21.5592 37.5752 20.4965 37.5737 19.4093Z" fill="black"/>
<path d="M33.4097 10.042C34.6477 8.91393 35.2577 7.46394 35.11 6C33.2186 6.15079 31.4714 6.83696 30.2167 7.92178C29.6032 8.45174 29.1334 9.06828 28.834 9.73617C28.5346 10.404 28.4116 11.1102 28.472 11.8142C29.418 11.8216 30.3539 11.6659 31.2092 11.3589C32.0645 11.052 32.8169 10.6017 33.4097 10.042Z" fill="black"/>
<path d="M56.7576 25.4195H51.2378L49.9122 28.3905H47.5742L52.8025 17.3984H55.2316L60.4598 28.3905H58.082L56.7576 25.4195ZM51.8094 24.0485H56.1848L54.0279 19.2267H53.9675L51.8094 24.0485Z" fill="black"/>
<path d="M71.7499 24.3819C71.7499 26.8723 69.9939 28.4724 67.3439 28.4724C66.6726 28.499 66.005 28.3816 65.4175 28.1337C64.83 27.8857 64.3464 27.5172 64.022 27.0702H63.9718V31.0397H61.8047V20.3744H63.9024V21.7073H63.9423C64.2816 21.2626 64.7734 20.8959 65.3653 20.6465C65.9573 20.397 66.6273 20.274 67.304 20.2905C69.9836 20.2905 71.7499 21.8984 71.7499 24.3819ZM69.5224 24.3819C69.5224 22.7594 68.4178 21.6926 66.7323 21.6926C65.0765 21.6926 63.9628 22.7818 63.9628 24.3819C63.9628 25.9966 65.0765 27.078 66.7323 27.078C68.4178 27.078 69.5224 26.0191 69.5224 24.3819Z" fill="black"/>
<path d="M83.371 24.3819C83.371 26.8723 81.615 28.4724 78.965 28.4724C78.2937 28.499 77.6261 28.3816 77.0386 28.1337C76.4511 27.8857 75.9675 27.5171 75.6431 27.0702H75.5929V31.0397H73.4258V20.3744H75.5235V21.7073H75.5633C75.9026 21.2626 76.3944 20.8959 76.9864 20.6465C77.5784 20.397 78.2484 20.274 78.9251 20.2905C81.6047 20.2905 83.371 21.8984 83.371 24.3819ZM81.1435 24.3819C81.1435 22.7594 80.0389 21.6926 78.3534 21.6926C76.6976 21.6926 75.5839 22.7818 75.5839 24.3819C75.5839 25.9966 76.6976 27.078 78.3534 27.078C80.0389 27.078 81.1435 26.0191 81.1435 24.3819H81.1435Z" fill="black"/>
<path d="M91.0505 25.3276C91.211 26.4176 92.6061 27.1333 94.5125 27.1333C96.3391 27.1333 97.6533 26.4176 97.6533 25.4347C97.6533 24.5815 96.8607 24.0706 94.9839 23.7205L93.1072 23.3774C90.4481 22.8898 89.2136 21.9459 89.2136 20.4141C89.2136 18.5175 91.391 17.2148 94.4828 17.2148C97.5428 17.2148 99.6405 18.5175 99.7111 20.4141H97.5234C97.3925 19.3171 96.1979 18.655 94.4521 18.655C92.7063 18.655 91.5117 19.3249 91.5117 20.3C91.5117 21.0771 92.2747 21.5344 94.1412 21.8845L95.7366 22.1818C98.7078 22.7152 99.9423 23.6211 99.9423 25.2289C99.9423 27.2854 97.7842 28.5734 94.3518 28.5734C91.1404 28.5734 88.9721 27.3157 88.832 25.3275L91.0505 25.3276Z" fill="black"/>
<path d="M104.619 18.4805V20.377H106.626V21.6797H104.619V26.0978C104.619 26.7842 105.021 27.104 105.903 27.104C106.142 27.1009 106.38 27.0881 106.616 27.0659V28.3609C106.219 28.4171 105.816 28.4426 105.413 28.4369C103.275 28.4369 102.441 27.8275 102.441 26.2733V21.6797H100.906V20.377H102.441V18.4805H104.619Z" fill="black"/>
<path d="M107.793 24.3834C107.793 21.8618 109.749 20.2773 112.8 20.2773C115.861 20.2773 117.809 21.8618 117.809 24.3834C117.809 26.9118 115.872 28.4894 112.8 28.4894C109.73 28.4894 107.793 26.9118 107.793 24.3834ZM115.601 24.3834C115.601 22.6537 114.556 21.6328 112.8 21.6328C111.044 21.6328 110.001 22.6614 110.001 24.3834C110.001 26.12 111.044 27.1331 112.8 27.1331C114.556 27.1331 115.601 26.12 115.601 24.3834H115.601Z" fill="black"/>
<path d="M119.594 20.3743H121.661V21.7384H121.711C121.851 21.3123 122.179 20.9359 122.642 20.6722C123.104 20.4085 123.672 20.2737 124.25 20.2905C124.5 20.2898 124.749 20.3104 124.993 20.3518V21.8905C124.678 21.8174 124.349 21.7838 124.019 21.7911C123.704 21.7814 123.39 21.8236 123.099 21.9146C122.808 22.0057 122.546 22.1435 122.331 22.3187C122.117 22.4939 121.955 22.7022 121.856 22.9294C121.758 23.1566 121.725 23.3973 121.761 23.6349V28.3884H119.594L119.594 20.3743Z" fill="black"/>
<path d="M134.985 26.0362C134.693 27.491 132.827 28.4894 130.439 28.4894C127.367 28.4894 125.461 26.9274 125.461 24.4214C125.461 21.9077 127.378 20.2773 130.348 20.2773C133.269 20.2773 135.106 21.8005 135.106 24.2304V24.794H127.649V24.8934C127.614 25.1883 127.663 25.4855 127.791 25.765C127.92 26.0446 128.125 26.3002 128.394 26.5149C128.662 26.7296 128.988 26.8985 129.349 27.0103C129.711 27.1221 130.099 27.1743 130.489 27.1634C131.001 27.1998 131.515 27.1098 131.954 26.9067C132.393 26.7036 132.735 26.3983 132.927 26.0362L134.985 26.0362ZM127.659 23.6443H132.937C132.957 23.3791 132.904 23.1137 132.782 22.8648C132.66 22.6159 132.471 22.3888 132.228 22.1978C131.985 22.0068 131.692 21.856 131.369 21.7549C131.045 21.6538 130.697 21.6046 130.348 21.6103C129.995 21.6087 129.645 21.6602 129.318 21.7617C128.992 21.8633 128.695 22.013 128.445 22.2021C128.195 22.3912 127.997 22.616 127.862 22.8635C127.727 23.111 127.658 23.3764 127.659 23.6443V23.6443Z" fill="black"/>
<path d="M53.7653 8.35732C54.2016 8.33355 54.6395 8.38359 55.0472 8.50382C55.455 8.62405 55.8225 8.81147 56.1233 9.05258C56.4241 9.29368 56.6507 9.58246 56.7866 9.89807C56.9226 10.2137 56.9646 10.5483 56.9096 10.8777C56.9096 12.4982 55.7558 13.4296 53.7653 13.4296H51.3516V8.35732H53.7653ZM52.3894 12.7123H53.6493C53.9611 12.7264 54.2732 12.6876 54.5627 12.5987C54.8522 12.5098 55.112 12.373 55.3231 12.1982C55.5342 12.0235 55.6913 11.8152 55.783 11.5885C55.8747 11.3619 55.8986 11.1226 55.8531 10.888C55.8953 10.6544 55.8689 10.4166 55.7758 10.1916C55.6828 9.96659 55.5253 9.76001 55.3147 9.58665C55.104 9.4133 54.8455 9.27745 54.5576 9.18884C54.2697 9.10023 53.9595 9.06105 53.6493 9.07412H52.3894V12.7123Z" fill="black"/>
<path d="M58.0816 11.5174C58.0499 11.2658 58.0878 11.012 58.1929 10.7722C58.298 10.5324 58.4679 10.312 58.6918 10.125C58.9157 9.93797 59.1887 9.78855 59.4931 9.68631C59.7976 9.58407 60.1268 9.53125 60.4597 9.53125C60.7927 9.53125 61.1219 9.58407 61.4263 9.68631C61.7308 9.78855 62.0037 9.93797 62.2276 10.125C62.4516 10.312 62.6215 10.5324 62.7266 10.7722C62.8317 11.012 62.8696 11.2658 62.8379 11.5174C62.8702 11.7692 62.8328 12.0233 62.7279 12.2635C62.6231 12.5037 62.4533 12.7245 62.2293 12.9119C62.0053 13.0993 61.7322 13.249 61.4274 13.3515C61.1227 13.4539 60.793 13.5069 60.4597 13.5069C60.1264 13.5069 59.7968 13.4539 59.492 13.3515C59.1873 13.249 58.9141 13.0993 58.6902 12.9119C58.4662 12.7245 58.2963 12.5037 58.1915 12.2635C58.0867 12.0233 58.0493 11.7692 58.0816 11.5174ZM61.8142 11.5174C61.8142 10.6876 61.3232 10.2024 60.4614 10.2024C59.5963 10.2024 59.1096 10.6876 59.1096 11.5174C59.1096 12.3538 59.5963 12.8353 60.4614 12.8353C61.3232 12.8352 61.8142 12.3504 61.8142 11.5174H61.8142Z" fill="black"/>
<path d="M69.1625 13.4333H68.1301L67.0879 10.6141H67.0091L65.9712 13.4333H64.9486L63.5586 9.60547H64.5681L65.4714 12.5264H65.5458L66.5826 9.60547H67.5374L68.5741 12.5264H68.6529L69.5519 9.60547H70.5471L69.1625 13.4333Z" fill="black"/>
<path d="M71.7149 9.605H72.6729V10.2131H72.7473C72.8734 9.99469 73.0862 9.8116 73.356 9.68936C73.6257 9.56711 73.939 9.51179 74.2522 9.53111C74.4975 9.51711 74.7439 9.54519 74.973 9.61328C75.2022 9.68137 75.4082 9.78772 75.5758 9.92445C75.7434 10.0612 75.8684 10.2248 75.9414 10.4032C76.0144 10.5815 76.0337 10.7701 75.9976 10.9548V13.4328H75.0024V11.1445C75.0024 10.5294 74.6502 10.2235 73.9142 10.2235C73.7476 10.2176 73.5813 10.2391 73.4267 10.2866C73.2721 10.334 73.1328 10.4063 73.0184 10.4984C72.9041 10.5906 72.8173 10.7004 72.7641 10.8204C72.7109 10.9403 72.6924 11.0676 72.7101 11.1935V13.4329H71.7148L71.7149 9.605Z" fill="black"/>
<path d="M77.582 8.10938H78.5773V13.4315H77.582V8.10938Z" fill="black"/>
<path d="M79.9643 11.5174C79.9327 11.2659 79.9706 11.012 80.0757 10.7723C80.1808 10.5325 80.3508 10.312 80.5748 10.125C80.7987 9.93798 81.0717 9.78856 81.3761 9.68631C81.6806 9.58407 82.0099 9.53125 82.3428 9.53125C82.6757 9.53125 83.005 9.58407 83.3095 9.68631C83.6139 9.78856 83.8869 9.93798 84.1108 10.125C84.3348 10.312 84.5047 10.5325 84.6099 10.7723C84.715 11.012 84.7529 11.2659 84.7212 11.5174C84.7535 11.7693 84.716 12.0234 84.6112 12.2636C84.5063 12.5038 84.3364 12.7246 84.1124 12.912C83.8884 13.0994 83.6153 13.2491 83.3105 13.3515C83.0057 13.454 82.6761 13.5069 82.3428 13.5069C82.0095 13.5069 81.6798 13.454 81.3751 13.3515C81.0703 13.2491 80.7971 13.0994 80.5732 12.912C80.3492 12.7246 80.1793 12.5038 80.0744 12.2636C79.9696 12.0234 79.9321 11.7693 79.9643 11.5174ZM83.697 11.5174C83.697 10.6877 83.206 10.2025 82.3442 10.2025C81.4791 10.2025 80.9924 10.6877 80.9924 11.5174C80.9924 12.3538 81.4791 12.8353 82.3442 12.8353C83.206 12.8353 83.697 12.3505 83.697 11.5174H83.697Z" fill="black"/>
<path d="M85.7656 12.3505C85.7656 11.6614 86.4415 11.2642 87.6413 11.2078L89.0072 11.148V10.8176C89.0072 10.4133 88.6551 10.185 87.9748 10.185C87.4193 10.185 87.0343 10.3398 86.9238 10.6105H85.9603C86.062 9.95297 86.8768 9.53125 88.0208 9.53125C89.285 9.53125 89.9981 10.009 89.9981 10.8176V13.433H89.0401V12.8951H88.9613C88.8015 13.088 88.5771 13.2453 88.3109 13.3509C88.0448 13.4565 87.7465 13.5066 87.4466 13.4961C87.2349 13.5128 87.0209 13.4956 86.8185 13.4457C86.616 13.3958 86.4296 13.3143 86.2713 13.2064C86.1129 13.0984 85.9861 12.9665 85.899 12.8191C85.8119 12.6717 85.7665 12.512 85.7656 12.3505ZM89.0072 12.0234V11.7034L87.7758 11.7631C87.0813 11.7984 86.7663 11.9777 86.7663 12.3152C86.7663 12.6597 87.16 12.8602 87.7014 12.8602C87.8601 12.8724 88.0203 12.8602 88.1726 12.8244C88.3249 12.7887 88.4662 12.73 88.588 12.6519C88.7099 12.5738 88.8098 12.478 88.8818 12.37C88.9538 12.262 88.9965 12.1441 89.0072 12.0234Z" fill="black"/>
<path d="M91.3047 11.516C91.3047 10.3064 92.1238 9.54017 93.398 9.54017C93.7131 9.52915 94.0259 9.58644 94.2998 9.70537C94.5736 9.82429 94.7972 9.99992 94.9444 10.2117H95.0188V8.10938H96.014V13.4315H95.0603V12.8268H94.9816C94.823 13.0371 94.5916 13.2106 94.3125 13.3283C94.0333 13.446 93.7171 13.5035 93.398 13.4946C92.1151 13.4947 91.3047 12.7284 91.3047 11.516ZM92.3328 11.516C92.3328 12.3279 92.837 12.8164 93.6802 12.8164C94.519 12.8164 95.0374 12.3208 95.0374 11.5193C95.0374 10.7215 94.5135 10.2188 93.6802 10.2188C92.8424 10.2188 92.3327 10.7107 92.3327 11.516H92.3328Z" fill="black"/>
<path d="M100.136 11.5174C100.105 11.2658 100.142 11.012 100.248 10.7722C100.353 10.5324 100.523 10.312 100.747 10.125C100.97 9.93797 101.243 9.78855 101.548 9.68631C101.852 9.58407 102.182 9.53125 102.514 9.53125C102.847 9.53125 103.177 9.58407 103.481 9.68631C103.785 9.78855 104.058 9.93797 104.282 10.125C104.506 10.312 104.676 10.5324 104.781 10.7722C104.886 11.012 104.924 11.2658 104.893 11.5174C104.925 11.7692 104.887 12.0233 104.783 12.2635C104.678 12.5037 104.508 12.7245 104.284 12.9119C104.06 13.0993 103.787 13.249 103.482 13.3515C103.177 13.4539 102.848 13.5069 102.514 13.5069C102.181 13.5069 101.851 13.4539 101.547 13.3515C101.242 13.249 100.969 13.0993 100.745 12.9119C100.521 12.7245 100.351 12.5037 100.246 12.2635C100.141 12.0233 100.104 11.7692 100.136 11.5174ZM103.869 11.5174C103.869 10.6876 103.378 10.2024 102.516 10.2024C101.651 10.2024 101.164 10.6876 101.164 11.5174C101.164 12.3538 101.651 12.8353 102.516 12.8353C103.378 12.8352 103.869 12.3504 103.869 11.5174Z" fill="black"/>
<path d="M106.227 9.605H107.185V10.2131H107.259C107.385 9.99469 107.598 9.8116 107.868 9.68936C108.137 9.56711 108.451 9.51179 108.764 9.53111C109.009 9.51711 109.256 9.54519 109.485 9.61328C109.714 9.68137 109.92 9.78772 110.088 9.92445C110.255 10.0612 110.38 10.2248 110.453 10.4032C110.526 10.5815 110.545 10.7701 110.509 10.9548V13.4328H109.514V11.1445C109.514 10.5294 109.162 10.2235 108.426 10.2235C108.259 10.2176 108.093 10.2391 107.938 10.2866C107.784 10.334 107.645 10.4063 107.53 10.4984C107.416 10.5906 107.329 10.7004 107.276 10.8204C107.223 10.9403 107.204 11.0676 107.222 11.1935V13.4329H106.227V9.605Z" fill="black"/>
<path d="M116.133 8.65234V9.6228H117.225V10.2591H116.133V12.2274C116.133 12.6284 116.35 12.804 116.846 12.804C116.973 12.8037 117.099 12.7978 117.225 12.7865V13.4158C117.047 13.4401 116.866 13.453 116.684 13.4544C115.577 13.4544 115.137 13.1589 115.137 12.4209V10.2591H114.336V9.62277H115.137V8.65234H116.133Z" fill="black"/>
<path d="M118.582 8.10938H119.569V10.2188H119.647C119.78 9.99837 119.998 9.81425 120.273 9.69154C120.549 9.56884 120.867 9.51351 121.185 9.5331C121.429 9.52302 121.673 9.55396 121.9 9.6237C122.126 9.69344 122.33 9.80027 122.495 9.93657C122.661 10.0729 122.786 10.2353 122.859 10.4122C122.933 10.5891 122.954 10.7762 122.922 10.9601V13.4315H121.925V11.1465C121.925 10.5351 121.55 10.2254 120.847 10.2254C120.676 10.2148 120.504 10.2326 120.343 10.2777C120.182 10.3228 120.036 10.3941 119.915 10.4865C119.794 10.579 119.701 10.6904 119.643 10.8129C119.584 10.9354 119.562 11.0661 119.577 11.1959V13.4315H118.582L118.582 8.10938Z" fill="black"/>
<path d="M128.728 12.3995C128.592 12.7494 128.299 13.052 127.9 13.2544C127.5 13.4569 127.02 13.5463 126.542 13.5069C126.21 13.5136 125.88 13.4653 125.575 13.3654C125.27 13.2655 124.997 13.1164 124.775 12.9284C124.553 12.7404 124.388 12.518 124.291 12.2768C124.194 12.0355 124.167 11.7811 124.213 11.5312C124.169 11.2805 124.196 11.0255 124.293 10.7835C124.39 10.5415 124.554 10.3182 124.774 10.1285C124.995 9.9389 125.266 9.78744 125.571 9.6844C125.875 9.58136 126.205 9.52916 126.538 9.53131C127.941 9.53131 128.788 10.259 128.788 11.461V11.7246H125.227V11.7669C125.211 11.9074 125.234 12.0488 125.295 12.1821C125.356 12.3153 125.452 12.4375 125.579 12.5407C125.705 12.644 125.859 12.726 126.029 12.7816C126.2 12.8372 126.384 12.8651 126.57 12.8636C126.808 12.8852 127.049 12.8527 127.263 12.7701C127.476 12.6874 127.653 12.5584 127.77 12.3995L128.728 12.3995ZM125.227 11.1659H127.774C127.786 11.0374 127.763 10.9084 127.706 10.7871C127.649 10.6657 127.559 10.5548 127.442 10.4614C127.326 10.368 127.184 10.2943 127.028 10.2448C126.871 10.1953 126.702 10.1713 126.533 10.1743C126.36 10.1726 126.19 10.1972 126.03 10.2464C125.871 10.2957 125.726 10.3687 125.604 10.4611C125.482 10.5535 125.386 10.6635 125.322 10.7845C125.257 10.9056 125.224 11.0352 125.227 11.1659H125.227Z" fill="black"/>
</svg>
