<svg width="150" height="38" viewBox="0 0 150 38" fill="none" xmlns="http://www.w3.org/2000/svg">
<path d="M138.055 0.0001235H11.9518C11.4921 0.0001235 11.038 0.0001235 10.5796 0.00202349C10.1958 0.00392349 9.81509 0.00944297 9.42764 0.0140885C8.58593 0.0215951 7.74619 0.0777157 6.91573 0.181962C6.08644 0.288479 5.28313 0.489292 4.53296 0.77761C3.78372 1.06837 3.09911 1.44618 2.50397 1.89733C1.90571 2.34722 1.40702 2.86723 1.02706 3.43736C0.646059 4.00636 0.38187 4.6161 0.243619 5.24551C0.104055 5.87413 0.028954 6.51 0.0189907 7.14741C0.0073581 7.43868 0.00612966 7.73091 0 8.02222V29.9807C0.00612966 30.2757 0.0073581 30.5614 0.0189907 30.8565C0.0289571 31.4939 0.104058 32.1297 0.243619 32.7583C0.381488 33.3881 0.645693 33.9982 1.02706 34.5674C1.40685 35.1357 1.90561 35.6536 2.50397 36.101C3.09685 36.5541 3.7819 36.9322 4.53296 37.2207C5.28312 37.5098 6.08635 37.7118 6.91573 37.82C7.74633 37.9234 8.58598 37.9795 9.42764 37.9879C9.81509 37.9944 10.1958 37.9981 10.5796 37.9981C11.038 38 11.4922 38 11.9518 38H138.055C138.505 38 138.963 38 139.414 37.9981C139.796 37.9981 140.187 37.9944 140.569 37.9879C141.409 37.98 142.247 37.9238 143.076 37.82C143.908 37.7111 144.715 37.5091 145.468 37.2207C146.219 36.932 146.903 36.554 147.495 36.101C148.092 35.6518 148.592 35.1343 148.977 34.5674C149.355 33.9977 149.617 33.3877 149.753 32.7583C149.892 32.1296 149.97 31.4939 149.985 30.8565C149.99 30.5614 149.99 30.2757 149.99 29.9807C150 29.6356 150 29.2923 150 28.9416V9.05942C150 8.71152 150 8.3664 149.99 8.02222C149.99 7.73091 149.99 7.43868 149.985 7.14737C149.97 6.5099 149.892 5.87418 149.753 5.24547C149.616 4.61643 149.355 4.00674 148.977 3.43733C148.203 2.29455 146.976 1.36434 145.468 0.777525C144.715 0.489911 143.908 0.289151 143.076 0.181877C142.248 0.0771709 141.409 0.0210308 140.569 0.0139555C140.187 0.00931947 139.796 0.00375249 139.414 0.00189999C138.963 0 138.505 0 138.055 0V0.0001235Z" fill="#A6A6A6"/>
<path d="M10.5851 37.1694C10.2032 37.1694 9.83048 37.1657 9.45156 37.1592C8.66659 37.1515 7.88345 37.0997 7.10858 37.0043C6.38604 36.91 5.6861 36.7346 5.03184 36.4838C4.38357 36.2351 3.79231 35.909 3.28068 35.518C2.76166 35.1316 2.32954 34.6835 2.00147 34.1914C1.66977 33.696 1.44022 33.1651 1.32081 32.617C1.19186 32.0281 1.12208 31.4327 1.1121 30.8358C1.10415 30.6354 1.09375 29.9683 1.09375 29.9683V8.02288C1.09375 8.02288 1.10483 7.36604 1.11216 7.17307C1.12172 6.57712 1.19109 5.98258 1.31966 5.39461C1.43929 4.84506 1.66902 4.31258 2.00089 3.81562C2.32776 3.32382 2.75748 2.87534 3.27338 2.48757C3.7887 2.09612 4.38186 1.76835 5.03122 1.51623C5.68398 1.26627 6.3826 1.09208 7.10367 0.999487C7.8811 0.903125 8.66695 0.851027 9.45464 0.843631L10.5857 0.832031H139.407L140.552 0.844096C141.332 0.851125 142.111 0.902759 142.881 0.998556C143.609 1.09231 144.315 1.26771 144.976 1.51901C146.277 2.02711 147.335 2.83098 148.003 3.81794C148.329 4.31147 148.556 4.8396 148.674 5.38441C148.804 5.97721 148.877 6.57641 148.892 7.17725C148.895 7.44629 148.895 7.73528 148.895 8.02288C148.905 8.37913 148.905 8.71821 148.905 9.06008V28.9422C148.905 29.2874 148.905 29.6242 148.895 29.9637C148.895 30.2726 148.895 30.5556 148.89 30.8469C148.876 31.437 148.804 32.0255 148.676 32.6077C148.559 33.1597 148.331 33.6948 147.999 34.1942C147.669 34.681 147.239 35.1253 146.726 35.5106C146.214 35.9037 145.622 36.2317 144.972 36.482C144.314 36.7347 143.609 36.9108 142.881 37.0043C142.106 37.1002 141.323 37.152 140.538 37.1592C140.171 37.1657 139.786 37.1694 139.413 37.1694L138.054 37.1713L10.5851 37.1694Z" fill="#737373"/>
<path d="M47.5398 8.14693H49.6307V11.048C49.317 11.1544 48.9937 11.2335 48.6609 11.2853C48.3309 11.3372 47.9613 11.3631 47.5521 11.3631C46.9301 11.3631 46.405 11.239 45.9767 10.9907C45.5512 10.7425 45.2279 10.3892 45.007 9.93096C44.786 9.46995 44.6755 8.92301 44.6755 8.29015C44.6755 7.67092 44.7969 7.1308 45.0397 6.66979C45.2852 6.20879 45.6385 5.85144 46.0995 5.59774C46.5632 5.34132 47.1197 5.21312 47.7689 5.21312C48.1017 5.21312 48.4168 5.24449 48.7141 5.30723C49.0142 5.36724 49.2924 5.45317 49.5489 5.56501L49.2829 6.1706C49.0619 6.07512 48.8178 5.99328 48.5505 5.92509C48.2859 5.85689 48.0117 5.82279 47.728 5.82279C47.2397 5.82279 46.821 5.92372 46.4718 6.12559C46.1254 6.32745 45.8594 6.61251 45.6739 6.98077C45.4912 7.34903 45.3998 7.78549 45.3998 8.29015C45.3998 8.78935 45.4803 9.22444 45.6412 9.59543C45.8021 9.96369 46.0531 10.2501 46.3941 10.4547C46.7351 10.6593 47.1743 10.7616 47.7117 10.7616C47.9817 10.7616 48.2136 10.7466 48.4073 10.7166C48.6009 10.6838 48.7769 10.6457 48.9351 10.602V8.76889H47.5398V8.14693ZM54.4099 11.2812H51.0792V5.29904H54.4099V5.91281H51.7748V7.84823H54.2585V8.45382H51.7748V10.6675H54.4099V11.2812ZM57.5729 11.2812H56.8732V5.91281H54.991V5.29904H59.4469V5.91281H57.5729V11.2812ZM62.528 11.2812V5.29904H63.2237V11.2812H62.528ZM66.7058 11.2812H66.0061V5.91281H64.1238V5.29904H68.5798V5.91281H66.7058V11.2812ZM76.8493 8.28196C76.8493 8.74297 76.7907 9.16306 76.6734 9.54224C76.5561 9.91868 76.3815 10.2433 76.1496 10.5161C75.9205 10.7861 75.6354 10.9948 75.2945 11.1421C74.9535 11.2894 74.5579 11.3631 74.1078 11.3631C73.6441 11.3631 73.239 11.2894 72.8926 11.1421C72.5489 10.9948 72.2624 10.7848 72.0333 10.512C71.8069 10.2392 71.6364 9.91323 71.5218 9.53405C71.41 9.15488 71.3541 8.73479 71.3541 8.27378C71.3541 7.66274 71.455 7.12671 71.6568 6.6657C71.8587 6.20469 72.1642 5.84598 72.5734 5.58956C72.9853 5.33314 73.5009 5.20493 74.1201 5.20493C74.7121 5.20493 75.2099 5.33178 75.6136 5.58547C76.0201 5.83916 76.327 6.19651 76.5343 6.65752C76.7443 7.1158 76.8493 7.65728 76.8493 8.28196ZM72.0865 8.28196C72.0865 8.78935 72.1588 9.22853 72.3034 9.59952C72.4479 9.97051 72.6689 10.2569 72.9662 10.4588C73.2663 10.6607 73.6468 10.7616 74.1078 10.7616C74.5716 10.7616 74.9507 10.6607 75.2454 10.4588C75.5427 10.2569 75.7623 9.97051 75.9041 9.59952C76.046 9.22853 76.1169 8.78935 76.1169 8.28196C76.1169 7.50998 75.9546 6.90712 75.63 6.47339C75.3081 6.03693 74.8048 5.8187 74.1201 5.8187C73.6564 5.8187 73.2745 5.91827 72.9744 6.1174C72.6743 6.31654 72.4507 6.60023 72.3034 6.9685C72.1588 7.33403 72.0865 7.77185 72.0865 8.28196ZM82.8602 11.2812H82.0582L78.797 6.25652H78.7643C78.7725 6.39019 78.782 6.54295 78.7929 6.7148C78.8039 6.88393 78.812 7.06534 78.8175 7.25901C78.8257 7.44996 78.8298 7.64501 78.8298 7.84414V11.2812H78.1833V5.29904H78.9812L82.23 10.3074H82.2587C82.2532 10.2119 82.2464 10.0769 82.2382 9.90231C82.23 9.725 82.2219 9.53542 82.2137 9.33355C82.2082 9.12896 82.2055 8.93938 82.2055 8.76479V5.29904H82.8602V11.2812Z" fill="white"/>
<path d="M47.5398 8.14693V8.04693H47.4398V8.14693H47.5398ZM49.6307 8.14693H49.7307V8.04693H49.6307V8.14693ZM49.6307 11.048L49.6628 11.1427L49.7307 11.1197V11.048H49.6307ZM48.6609 11.2853L48.6456 11.1865L48.6454 11.1866L48.6609 11.2853ZM45.9767 10.9907L45.9263 11.0771L45.9266 11.0772L45.9767 10.9907ZM45.007 9.93096L44.9168 9.97418L44.9169 9.97439L45.007 9.93096ZM45.0397 6.6698L44.9514 6.62279L44.9512 6.6232L45.0397 6.6698ZM46.0995 5.59774L46.1477 5.68535L46.1479 5.68526L46.0995 5.59774ZM48.7141 5.30723L48.6935 5.40508L48.6945 5.40528L48.7141 5.30723ZM49.5489 5.56501L49.6404 5.60522L49.6807 5.51343L49.5888 5.47335L49.5489 5.56501ZM49.2829 6.1706L49.2432 6.26239L49.3345 6.30182L49.3745 6.21081L49.2829 6.1706ZM48.5505 5.92509L48.5255 6.02192L48.5258 6.02198L48.5505 5.92509ZM46.4718 6.12559L46.4218 6.03901L46.4215 6.03918L46.4718 6.12559ZM45.6739 6.98077L45.5846 6.93578L45.5844 6.93632L45.6739 6.98077ZM45.6412 9.59543L45.5495 9.63523L45.5496 9.63548L45.6412 9.59543ZM46.3941 10.4547L46.3426 10.5405L46.3941 10.4547ZM48.4073 10.7166L48.4226 10.8154L48.4239 10.8152L48.4073 10.7166ZM48.9351 10.602L48.9617 10.6984L49.0351 10.6782V10.602H48.9351ZM48.9351 8.76889H49.0351V8.66889H48.9351V8.76889ZM47.5398 8.76889H47.4398V8.86889H47.5398V8.76889ZM47.5398 8.14693V8.24693H49.6307V8.14693V8.04693H47.5398V8.14693ZM49.6307 8.14693H49.5307V11.048H49.6307H49.7307V8.14693H49.6307ZM49.6307 11.048L49.5986 10.9533C49.2904 11.0578 48.9728 11.1356 48.6456 11.1865L48.6609 11.2853L48.6763 11.3842C49.0147 11.3315 49.3436 11.251 49.6628 11.1427L49.6307 11.048ZM48.6609 11.2853L48.6454 11.1866C48.3215 11.2374 47.9572 11.2631 47.5521 11.2631V11.3631V11.4631C47.9653 11.4631 48.3403 11.4369 48.6765 11.3841L48.6609 11.2853ZM47.5521 11.3631V11.2631C46.9433 11.2631 46.4365 11.1416 46.0269 10.9042L45.9767 10.9907L45.9266 11.0772C46.3735 11.3363 46.917 11.4631 47.5521 11.4631V11.3631ZM45.9767 10.9907L46.0271 10.9044C45.6194 10.6665 45.3097 10.3285 45.097 9.88753L45.007 9.93096L44.9169 9.97439C45.1462 10.45 45.483 10.8185 45.9263 11.0771L45.9767 10.9907ZM45.007 9.93096L45.0971 9.88774C44.884 9.44304 44.7755 8.91153 44.7755 8.29015H44.6755H44.5755C44.5755 8.93449 44.688 9.49686 44.9168 9.97418L45.007 9.93096ZM44.6755 8.29015H44.7755C44.7755 7.68411 44.8943 7.16056 45.1282 6.71639L45.0397 6.6698L44.9512 6.6232C44.6996 7.10105 44.5755 7.65773 44.5755 8.29015H44.6755ZM45.0397 6.6698L45.128 6.7168C45.3643 6.27306 45.7036 5.92976 46.1477 5.68535L46.0995 5.59774L46.0513 5.51013C45.5734 5.77311 45.2061 6.14451 44.9514 6.62279L45.0397 6.6698ZM46.0995 5.59774L46.1479 5.68526C46.5938 5.43868 47.1329 5.31312 47.7689 5.31312V5.21312V5.11312C47.1066 5.11312 46.5326 5.24397 46.0511 5.51023L46.0995 5.59774ZM47.7689 5.21312V5.31312C48.0954 5.31312 48.4036 5.34389 48.6935 5.40507L48.7141 5.30723L48.7348 5.20938C48.4301 5.14508 48.108 5.11312 47.7689 5.11312V5.21312ZM48.7141 5.30723L48.6945 5.40528C48.9882 5.46403 49.2596 5.54793 49.5089 5.65667L49.5489 5.56501L49.5888 5.47335C49.3253 5.3584 49.0402 5.27045 48.7338 5.20917L48.7141 5.30723ZM49.5489 5.56501L49.4573 5.5248L49.1913 6.13038L49.2829 6.1706L49.3745 6.21081L49.6404 5.60522L49.5489 5.56501ZM49.2829 6.1706L49.3226 6.0788C49.0961 5.98096 48.8469 5.89751 48.5752 5.82819L48.5505 5.92509L48.5258 6.02198C48.7887 6.08906 49.0278 6.16929 49.2432 6.26239L49.2829 6.1706ZM48.5505 5.92509L48.5754 5.82825C48.3024 5.75788 48.0198 5.72279 47.728 5.72279V5.82279V5.92279C48.0036 5.92279 48.2694 5.95591 48.5255 6.02192L48.5505 5.92509ZM47.728 5.82279V5.72279C47.2259 5.72279 46.7891 5.82667 46.4218 6.03901L46.4718 6.12559L46.5219 6.21216C46.8529 6.02077 47.2536 5.92279 47.728 5.92279V5.82279ZM46.4718 6.12559L46.4215 6.03918C46.0578 6.25108 45.7786 6.55076 45.5846 6.93579L45.6739 6.98077L45.7632 7.02576C45.9403 6.67426 46.193 6.40382 46.5222 6.21199L46.4718 6.12559ZM45.6739 6.98077L45.5844 6.93632C45.3934 7.32118 45.2998 7.77351 45.2998 8.29015H45.3998H45.4998C45.4998 7.79747 45.589 7.37689 45.7635 7.02523L45.6739 6.98077ZM45.3998 8.29015H45.2998C45.2998 8.79992 45.382 9.2491 45.5495 9.63523L45.6412 9.59543L45.7329 9.55563C45.5786 9.19978 45.4998 8.77877 45.4998 8.29015H45.3998ZM45.6412 9.59543L45.5496 9.63548C45.7187 10.0226 45.9836 10.3251 46.3426 10.5405L46.3941 10.4547L46.4455 10.369C46.1226 10.1752 45.8856 9.90482 45.7328 9.55538L45.6412 9.59543ZM46.3941 10.4547L46.3426 10.5405C46.7037 10.7571 47.1623 10.8616 47.7117 10.8616V10.7616V10.6616C47.1862 10.6616 46.7664 10.5615 46.4455 10.369L46.3941 10.4547ZM47.7117 10.7616V10.8616C47.9851 10.8616 48.2223 10.8464 48.4226 10.8154L48.4073 10.7166L48.3919 10.6178C48.2048 10.6468 47.9783 10.6616 47.7117 10.6616V10.7616ZM48.4073 10.7166L48.4239 10.8152C48.6203 10.782 48.7996 10.7431 48.9617 10.6984L48.9351 10.602L48.9085 10.5056C48.7541 10.5482 48.5816 10.5857 48.3906 10.618L48.4073 10.7166ZM48.9351 10.602H49.0351V8.76889H48.9351H48.8351V10.602H48.9351ZM48.9351 8.76889V8.66889H47.5398V8.76889V8.86889H48.9351V8.76889ZM47.5398 8.76889H47.6398V8.14693H47.5398H47.4398V8.76889H47.5398ZM54.4099 11.2812V11.3813H54.5099V11.2812H54.4099ZM51.0792 11.2812H50.9792V11.3813H51.0792V11.2812ZM51.0792 5.29904V5.19904H50.9792V5.29904H51.0792ZM54.4099 5.29904H54.5099V5.19904H54.4099V5.29904ZM54.4099 5.91281V6.01281H54.5099V5.91281H54.4099ZM51.7748 5.91281V5.81281H51.6748V5.91281H51.7748ZM51.7748 7.84823H51.6748V7.94823H51.7748V7.84823ZM54.2585 7.84823H54.3585V7.74823H54.2585V7.84823ZM54.2585 8.45382V8.55382H54.3585V8.45382H54.2585ZM51.7748 8.45382V8.35382H51.6748V8.45382H51.7748ZM51.7748 10.6675H51.6748V10.7675H51.7748V10.6675ZM54.4099 10.6675H54.5099V10.5675H54.4099V10.6675ZM54.4099 11.2812V11.1812H51.0792V11.2812V11.3813H54.4099V11.2812ZM51.0792 11.2812H51.1792V5.29904H51.0792H50.9792V11.2812H51.0792ZM51.0792 5.29904V5.39904H54.4099V5.29904V5.19904H51.0792V5.29904ZM54.4099 5.29904H54.3099V5.91281H54.4099H54.5099V5.29904H54.4099ZM54.4099 5.91281V5.81281H51.7748V5.91281V6.01281H54.4099V5.91281ZM51.7748 5.91281H51.6748V7.84823H51.7748H51.8748V5.91281H51.7748ZM51.7748 7.84823V7.94823H54.2585V7.84823V7.74823H51.7748V7.84823ZM54.2585 7.84823H54.1585V8.45382H54.2585H54.3585V7.84823H54.2585ZM54.2585 8.45382V8.35382H51.7748V8.45382V8.55382H54.2585V8.45382ZM51.7748 8.45382H51.6748V10.6675H51.7748H51.8748V8.45382H51.7748ZM51.7748 10.6675V10.7675H54.4099V10.6675V10.5675H51.7748V10.6675ZM54.4099 10.6675H54.3099V11.2812H54.4099H54.5099V10.6675H54.4099ZM57.5729 11.2812V11.3813H57.6729V11.2812H57.5729ZM56.8732 11.2812H56.7732V11.3813H56.8732V11.2812ZM56.8732 5.91281H56.9732V5.81281H56.8732V5.91281ZM54.991 5.91281H54.891V6.01281H54.991V5.91281ZM54.991 5.29904V5.19904H54.891V5.29904H54.991ZM59.4469 5.29904H59.5469V5.19904H59.4469V5.29904ZM59.4469 5.91281V6.01281H59.5469V5.91281H59.4469ZM57.5729 5.91281V5.81281H57.4729V5.91281H57.5729ZM57.5729 11.2812V11.1812H56.8732V11.2812V11.3813H57.5729V11.2812ZM56.8732 11.2812H56.9732V5.91281H56.8732H56.7732V11.2812H56.8732ZM56.8732 5.91281V5.81281H54.991V5.91281V6.01281H56.8732V5.91281ZM54.991 5.91281H55.091V5.29904H54.991H54.891V5.91281H54.991ZM54.991 5.29904V5.39904H59.4469V5.29904V5.19904H54.991V5.29904ZM59.4469 5.29904H59.3469V5.91281H59.4469H59.5469V5.29904H59.4469ZM59.4469 5.91281V5.81281H57.5729V5.91281V6.01281H59.4469V5.91281ZM57.5729 5.91281H57.4729V11.2812H57.5729H57.6729V5.91281H57.5729ZM62.528 11.2812H62.428V11.3813H62.528V11.2812ZM62.528 5.29904V5.19904H62.428V5.29904H62.528ZM63.2237 5.29904H63.3237V5.19904H63.2237V5.29904ZM63.2237 11.2812V11.3813H63.3237V11.2812H63.2237ZM62.528 11.2812H62.628V5.29904H62.528H62.428V11.2812H62.528ZM62.528 5.29904V5.39904H63.2237V5.29904V5.19904H62.528V5.29904ZM63.2237 5.29904H63.1237V11.2812H63.2237H63.3237V5.29904H63.2237ZM63.2237 11.2812V11.1812H62.528V11.2812V11.3813H63.2237V11.2812ZM66.7058 11.2812V11.3813H66.8058V11.2812H66.7058ZM66.0061 11.2812H65.9061V11.3813H66.0061V11.2812ZM66.0061 5.91281H66.1061V5.81281H66.0061V5.91281ZM64.1238 5.91281H64.0238V6.01281H64.1238V5.91281ZM64.1238 5.29904V5.19904H64.0238V5.29904H64.1238ZM68.5798 5.29904H68.6798V5.19904H68.5798V5.29904ZM68.5798 5.91281V6.01281H68.6798V5.91281H68.5798ZM66.7058 5.91281V5.81281H66.6058V5.91281H66.7058ZM66.7058 11.2812V11.1812H66.0061V11.2812V11.3813H66.7058V11.2812ZM66.0061 11.2812H66.1061V5.91281H66.0061H65.9061V11.2812H66.0061ZM66.0061 5.91281V5.81281H64.1238V5.91281V6.01281H66.0061V5.91281ZM64.1238 5.91281H64.2238V5.29904H64.1238H64.0238V5.91281H64.1238ZM64.1238 5.29904V5.39904H68.5798V5.29904V5.19904H64.1238V5.29904ZM68.5798 5.29904H68.4798V5.91281H68.5798H68.6798V5.29904H68.5798ZM68.5798 5.91281V5.81281H66.7058V5.91281V6.01281H68.5798V5.91281ZM66.7058 5.91281H66.6058V11.2812H66.7058H66.8058V5.91281H66.7058ZM76.6734 9.54224L76.7689 9.57199L76.7689 9.57179L76.6734 9.54224ZM76.1496 10.5161L76.0734 10.4513L76.0734 10.4514L76.1496 10.5161ZM75.2945 11.1421L75.3341 11.2339L75.2945 11.1421ZM72.8926 11.1421L72.8532 11.234L72.8534 11.2342L72.8926 11.1421ZM72.0333 10.512L71.9563 10.5759L71.9567 10.5763L72.0333 10.512ZM71.5218 9.53405L71.4259 9.56234L71.4261 9.56298L71.5218 9.53405ZM72.5734 5.58956L72.5206 5.50467L72.5203 5.50482L72.5734 5.58956ZM75.6136 5.58547L75.5604 5.67014L75.5607 5.6703L75.6136 5.58547ZM76.5343 6.65752L76.4431 6.69853L76.4434 6.69918L76.5343 6.65752ZM72.9662 10.4588L72.9101 10.5415L72.9104 10.5418L72.9662 10.4588ZM75.2454 10.4588L75.1892 10.3761L75.1888 10.3763L75.2454 10.4588ZM75.63 6.47339L75.5495 6.53274L75.5499 6.53331L75.63 6.47339ZM72.9744 6.1174L72.9191 6.03408L72.9744 6.1174ZM72.3034 6.9685L72.2105 6.93136L72.2104 6.93172L72.3034 6.9685ZM76.8493 8.28196H76.7493C76.7493 8.73453 76.6918 9.14448 76.5779 9.51268L76.6734 9.54224L76.7689 9.57179C76.8896 9.18164 76.9493 8.75141 76.9493 8.28196H76.8493ZM76.6734 9.54224L76.5779 9.51249C76.4642 9.87739 76.2957 10.1898 76.0734 10.4513L76.1496 10.5161L76.2258 10.5808C76.4673 10.2968 76.648 9.95997 76.7689 9.57199L76.6734 9.54224ZM76.1496 10.5161L76.0734 10.4514C75.8547 10.7091 75.5824 10.9088 75.2548 11.0503L75.2945 11.1421L75.3341 11.2339C75.6885 11.0808 75.9863 10.8631 76.2259 10.5808L76.1496 10.5161ZM75.2945 11.1421L75.2548 11.0503C74.9287 11.1912 74.5471 11.2631 74.1078 11.2631V11.3631V11.4631C74.5687 11.4631 74.9783 11.3877 75.3341 11.2339L75.2945 11.1421ZM74.1078 11.3631V11.2631C73.6545 11.2631 73.2633 11.1911 72.9317 11.0501L72.8926 11.1421L72.8534 11.2342C73.2148 11.3878 73.6337 11.4631 74.1078 11.4631V11.3631ZM72.8926 11.1421L72.932 11.0502C72.6019 10.9088 72.3284 10.7079 72.1099 10.4477L72.0333 10.512L71.9567 10.5763C72.1964 10.8617 72.4958 11.0809 72.8532 11.234L72.8926 11.1421ZM72.0333 10.512L72.1102 10.4481C71.8933 10.1868 71.7287 9.87302 71.6175 9.50513L71.5218 9.53405L71.4261 9.56298C71.5441 9.95343 71.7205 10.2917 71.9563 10.5759L72.0333 10.512ZM71.5218 9.53405L71.6177 9.50576C71.509 9.13715 71.4541 8.72676 71.4541 8.27378H71.3541H71.2541C71.2541 8.74282 71.3109 9.17261 71.4259 9.56234L71.5218 9.53405ZM71.3541 8.27378H71.4541C71.4541 7.67365 71.5532 7.15177 71.7484 6.70581L71.6568 6.6657L71.5652 6.62559C71.3568 7.10165 71.2541 7.65182 71.2541 8.27378H71.3541ZM71.6568 6.6657L71.7484 6.70581C71.9426 6.26239 72.2351 5.91958 72.6265 5.6743L72.5734 5.58956L72.5203 5.50482C72.0934 5.77238 71.7748 6.147 71.5652 6.62559L71.6568 6.6657ZM72.5734 5.58956L72.6263 5.67445C73.0185 5.43029 73.5145 5.30493 74.1201 5.30493V5.20493V5.10493C73.4873 5.10493 72.9522 5.23599 72.5206 5.50467L72.5734 5.58956ZM74.1201 5.20493V5.30493C74.6978 5.30493 75.1761 5.42863 75.5604 5.67014L75.6136 5.58547L75.6668 5.5008C75.2437 5.23492 74.7263 5.10493 74.1201 5.10493V5.20493ZM75.6136 5.58547L75.5607 5.6703C75.9494 5.91291 76.2434 6.25455 76.4431 6.69853L76.5343 6.65752L76.6255 6.61651C76.4105 6.13847 76.0908 5.76541 75.6666 5.50064L75.6136 5.58547ZM76.5343 6.65752L76.4434 6.69918C76.6462 7.14166 76.7493 7.66831 76.7493 8.28196H76.8493H76.9493C76.9493 7.64625 76.8425 7.08994 76.6252 6.61585L76.5343 6.65752ZM72.0865 8.28196H71.9865C71.9865 8.79851 72.06 9.25058 72.2102 9.63583L72.3034 9.59952L72.3965 9.56321C72.2575 9.20649 72.1865 8.78018 72.1865 8.28196H72.0865ZM72.3034 9.59952L72.2102 9.63583C72.3613 10.0236 72.5942 10.3271 72.9101 10.5415L72.9662 10.4588L73.0224 10.3761C72.7436 10.1868 72.5346 9.91746 72.3965 9.56321L72.3034 9.59952ZM72.9662 10.4588L72.9104 10.5418C73.231 10.7574 73.6324 10.8616 74.1078 10.8616V10.7616V10.6616C73.6613 10.6616 73.3016 10.5639 73.022 10.3758L72.9662 10.4588ZM74.1078 10.7616V10.8616C74.5858 10.8616 74.9863 10.7575 75.3019 10.5413L75.2454 10.4588L75.1888 10.3763C74.9152 10.5638 74.5574 10.6616 74.1078 10.6616V10.7616ZM75.2454 10.4588L75.3015 10.5415C75.6176 10.327 75.8492 10.0232 75.9975 9.63524L75.9041 9.59952L75.8107 9.56381C75.6754 9.91778 75.4678 10.1869 75.1892 10.3761L75.2454 10.4588ZM75.9041 9.59952L75.9975 9.63524C76.1448 9.25017 76.2169 8.79832 76.2169 8.28196H76.1169H76.0169C76.0169 8.78037 75.9472 9.2069 75.8107 9.56381L75.9041 9.59952ZM76.1169 8.28196H76.2169C76.2169 7.49727 76.0521 6.87047 75.71 6.41347L75.63 6.47339L75.5499 6.53331C75.8571 6.94377 76.0169 7.52268 76.0169 8.28196H76.1169ZM75.63 6.47339L75.7105 6.41403C75.3648 5.94539 74.8273 5.7187 74.1201 5.7187V5.8187V5.9187C74.7823 5.9187 75.2513 6.12847 75.5495 6.53274L75.63 6.47339ZM74.1201 5.8187V5.7187C73.6423 5.7187 73.2397 5.82133 72.9191 6.03408L72.9744 6.1174L73.0297 6.20072C73.3093 6.0152 73.6704 5.9187 74.1201 5.9187V5.8187ZM72.9744 6.1174L72.9191 6.03408C72.6004 6.24557 72.3645 6.54624 72.2105 6.93136L72.3034 6.9685L72.3962 7.00564C72.5368 6.65423 72.7483 6.3875 73.0297 6.20072L72.9744 6.1174ZM72.3034 6.9685L72.2104 6.93172C72.06 7.31187 71.9865 7.76283 71.9865 8.28196H72.0865H72.1865C72.1865 7.78088 72.2575 7.35619 72.3963 7.00528L72.3034 6.9685ZM82.8602 11.2812V11.3813H82.9602V11.2812H82.8602ZM82.0582 11.2812L81.9743 11.3357L82.0039 11.3813H82.0582V11.2812ZM78.797 6.25652L78.8809 6.20208L78.8513 6.15652H78.797V6.25652ZM78.7643 6.25652V6.15652H78.658L78.6645 6.26263L78.7643 6.25652ZM78.7929 6.7148L78.6931 6.72114L78.6931 6.72124L78.7929 6.7148ZM78.8175 7.25901L78.7175 7.26183L78.7176 7.2633L78.8175 7.25901ZM78.8298 11.2812V11.3813H78.9298V11.2812H78.8298ZM78.1833 11.2812H78.0833V11.3813H78.1833V11.2812ZM78.1833 5.29904V5.19904H78.0833V5.29904H78.1833ZM78.9812 5.29904L79.0651 5.24462L79.0355 5.19904H78.9812V5.29904ZM82.23 10.3074L82.1462 10.3618L82.1757 10.4074H82.23V10.3074ZM82.2587 10.3074V10.4074H82.3646L82.3585 10.3017L82.2587 10.3074ZM82.2382 9.90231L82.1383 9.90692L82.1383 9.907L82.2382 9.90231ZM82.2137 9.33355L82.1137 9.33622L82.1138 9.33761L82.2137 9.33355ZM82.2055 5.29904V5.19904H82.1055V5.29904H82.2055ZM82.8602 5.29904H82.9602V5.19904H82.8602V5.29904ZM82.8602 11.2812V11.1812H82.0582V11.2812V11.3813H82.8602V11.2812ZM82.0582 11.2812L82.1421 11.2268L78.8809 6.20208L78.797 6.25652L78.7132 6.31096L81.9743 11.3357L82.0582 11.2812ZM78.797 6.25652V6.15652H78.7643V6.25652V6.35652H78.797V6.25652ZM78.7643 6.25652L78.6645 6.26263C78.6727 6.39639 78.6822 6.54923 78.6931 6.72114L78.7929 6.7148L78.8927 6.70847C78.8818 6.53667 78.8723 6.38399 78.8641 6.25041L78.7643 6.25652ZM78.7929 6.7148L78.6931 6.72124C78.704 6.88901 78.7121 7.06919 78.7175 7.26183L78.8175 7.25901L78.9174 7.2562C78.912 7.06148 78.9037 6.87886 78.8927 6.70837L78.7929 6.7148ZM78.8175 7.25901L78.7176 7.2633C78.7257 7.45276 78.7298 7.64638 78.7298 7.84414H78.8298H78.9298C78.9298 7.64364 78.9256 7.44717 78.9174 7.25473L78.8175 7.25901ZM78.8298 7.84414H78.7298V11.2812H78.8298H78.9298V7.84414H78.8298ZM78.8298 11.2812V11.1812H78.1833V11.2812V11.3813H78.8298V11.2812ZM78.1833 11.2812H78.2833V5.29904H78.1833H78.0833V11.2812H78.1833ZM78.1833 5.29904V5.39904H78.9812V5.29904V5.19904H78.1833V5.29904ZM78.9812 5.29904L78.8973 5.35346L82.1462 10.3618L82.23 10.3074L82.3139 10.253L79.0651 5.24462L78.9812 5.29904ZM82.23 10.3074V10.4074H82.2587V10.3074V10.2074H82.23V10.3074ZM82.2587 10.3074L82.3585 10.3017C82.3531 10.2067 82.3463 10.0721 82.3381 9.89763L82.2382 9.90231L82.1383 9.907C82.1465 10.0817 82.1534 10.2171 82.1589 10.3131L82.2587 10.3074ZM82.2382 9.90231L82.3381 9.8977C82.33 9.7206 82.3218 9.5312 82.3136 9.3295L82.2137 9.33355L82.1138 9.33761C82.122 9.53963 82.1301 9.7294 82.1383 9.90692L82.2382 9.90231ZM82.2137 9.33355L82.3136 9.33089C82.3082 9.12704 82.3055 8.93835 82.3055 8.76479H82.2055H82.1055C82.1055 8.9404 82.1082 9.13089 82.1137 9.33622L82.2137 9.33355ZM82.2055 8.76479H82.3055V5.29904H82.2055H82.1055V8.76479H82.2055ZM82.2055 5.29904V5.39904H82.8602V5.29904V5.19904H82.2055V5.29904ZM82.8602 5.29904H82.7602V11.2812H82.8602H82.9602V5.29904H82.8602Z" fill="white"/>
<path d="M49.2158 22.6689H53.1807V27.8506C52.6566 28.0238 52.112 28.1628 51.5469 28.2676C50.9818 28.3678 50.3415 28.418 49.626 28.418C48.6325 28.418 47.7894 28.222 47.0967 27.8301C46.404 27.4382 45.8776 26.8594 45.5176 26.0938C45.1576 25.3281 44.9775 24.387 44.9775 23.2705C44.9775 22.2223 45.1781 21.3154 45.5791 20.5498C45.9847 19.7842 46.5749 19.1917 47.3496 18.7725C48.1289 18.3532 49.0791 18.1436 50.2002 18.1436C50.7288 18.1436 51.2507 18.2005 51.7656 18.3145C52.2806 18.4284 52.7477 18.5765 53.167 18.7588L52.4629 20.4541C52.1576 20.2992 51.8089 20.1693 51.417 20.0645C51.0251 19.9596 50.6149 19.9072 50.1865 19.9072C49.5713 19.9072 49.0358 20.0485 48.5801 20.3311C48.1289 20.6136 47.778 21.0101 47.5273 21.5205C47.2812 22.0264 47.1582 22.6234 47.1582 23.3115C47.1582 23.9632 47.2471 24.542 47.4248 25.0479C47.6025 25.5492 47.8828 25.9434 48.2656 26.2305C48.6484 26.513 49.1475 26.6543 49.7627 26.6543C50.0635 26.6543 50.3164 26.6406 50.5215 26.6133C50.7311 26.5814 50.9271 26.5495 51.1094 26.5176V24.4326H49.2158V22.6689ZM62.3477 24.4463C62.3477 25.0843 62.2611 25.6494 62.0879 26.1416C61.9193 26.6338 61.6709 27.0508 61.3428 27.3926C61.0192 27.7298 60.6273 27.985 60.167 28.1582C59.7113 28.3314 59.1963 28.418 58.6221 28.418C58.0843 28.418 57.5898 28.3314 57.1387 28.1582C56.6921 27.985 56.3024 27.7298 55.9697 27.3926C55.6416 27.0508 55.3864 26.6338 55.2041 26.1416C55.0264 25.6494 54.9375 25.0843 54.9375 24.4463C54.9375 23.5986 55.0879 22.8809 55.3887 22.293C55.6895 21.7051 56.1178 21.2585 56.6738 20.9531C57.2298 20.6478 57.8929 20.4951 58.6631 20.4951C59.3786 20.4951 60.012 20.6478 60.5635 20.9531C61.1195 21.2585 61.5547 21.7051 61.8691 22.293C62.1882 22.8809 62.3477 23.5986 62.3477 24.4463ZM57.0635 24.4463C57.0635 24.9476 57.1182 25.3691 57.2275 25.7109C57.3369 26.0527 57.5078 26.3102 57.7402 26.4834C57.9727 26.6566 58.2757 26.7432 58.6494 26.7432C59.0186 26.7432 59.3171 26.6566 59.5449 26.4834C59.7773 26.3102 59.946 26.0527 60.0508 25.7109C60.1602 25.3691 60.2148 24.9476 60.2148 24.4463C60.2148 23.9404 60.1602 23.5212 60.0508 23.1885C59.946 22.8512 59.7773 22.5983 59.5449 22.4297C59.3125 22.2611 59.0094 22.1768 58.6357 22.1768C58.0843 22.1768 57.6833 22.3659 57.4326 22.7441C57.1865 23.1224 57.0635 23.6898 57.0635 24.4463ZM71.0156 24.4463C71.0156 25.0843 70.929 25.6494 70.7559 26.1416C70.5872 26.6338 70.3389 27.0508 70.0107 27.3926C69.6872 27.7298 69.2952 27.985 68.835 28.1582C68.3792 28.3314 67.8643 28.418 67.29 28.418C66.7523 28.418 66.2578 28.3314 65.8066 28.1582C65.36 27.985 64.9704 27.7298 64.6377 27.3926C64.3096 27.0508 64.0544 26.6338 63.8721 26.1416C63.6943 25.6494 63.6055 25.0843 63.6055 24.4463C63.6055 23.5986 63.7559 22.8809 64.0566 22.293C64.3574 21.7051 64.7858 21.2585 65.3418 20.9531C65.8978 20.6478 66.5609 20.4951 67.3311 20.4951C68.0465 20.4951 68.68 20.6478 69.2314 20.9531C69.7874 21.2585 70.2227 21.7051 70.5371 22.293C70.8561 22.8809 71.0156 23.5986 71.0156 24.4463ZM65.7314 24.4463C65.7314 24.9476 65.7861 25.3691 65.8955 25.7109C66.0049 26.0527 66.1758 26.3102 66.4082 26.4834C66.6406 26.6566 66.9437 26.7432 67.3174 26.7432C67.6865 26.7432 67.985 26.6566 68.2129 26.4834C68.4453 26.3102 68.6139 26.0527 68.7188 25.7109C68.8281 25.3691 68.8828 24.9476 68.8828 24.4463C68.8828 23.9404 68.8281 23.5212 68.7188 23.1885C68.6139 22.8512 68.4453 22.5983 68.2129 22.4297C67.9805 22.2611 67.6774 22.1768 67.3037 22.1768C66.7523 22.1768 66.3512 22.3659 66.1006 22.7441C65.8545 23.1224 65.7314 23.6898 65.7314 24.4463ZM74.9736 31.6445C73.9072 31.6445 73.0915 31.4577 72.5264 31.084C71.9658 30.7148 71.6855 30.1953 71.6855 29.5254C71.6855 29.0651 71.8291 28.68 72.1162 28.3701C72.4033 28.0602 72.8249 27.8392 73.3809 27.707C73.1667 27.6159 72.9798 27.4678 72.8203 27.2627C72.6608 27.0531 72.5811 26.832 72.5811 26.5996C72.5811 26.3079 72.6654 26.0664 72.834 25.875C73.0026 25.679 73.2464 25.4876 73.5654 25.3008C73.1644 25.1276 72.8454 24.8496 72.6084 24.4668C72.376 24.084 72.2598 23.6328 72.2598 23.1133C72.2598 22.5573 72.3805 22.0856 72.6221 21.6982C72.8682 21.3063 73.2236 21.0078 73.6885 20.8027C74.1579 20.5977 74.7275 20.4951 75.3975 20.4951C75.5387 20.4951 75.7028 20.5042 75.8896 20.5225C76.0765 20.5407 76.2474 20.5612 76.4023 20.584C76.5618 20.6068 76.6689 20.625 76.7236 20.6387H79.3896V21.6982L78.1934 22.0059C78.3027 22.1745 78.3848 22.3545 78.4395 22.5459C78.4941 22.7373 78.5215 22.9401 78.5215 23.1543C78.5215 23.9746 78.2344 24.6149 77.6602 25.0752C77.0905 25.5309 76.2975 25.7588 75.2812 25.7588C75.0397 25.7451 74.8118 25.7269 74.5977 25.7041C74.4928 25.7861 74.4131 25.8727 74.3584 25.9639C74.3037 26.055 74.2764 26.1507 74.2764 26.251C74.2764 26.3512 74.3174 26.4355 74.3994 26.5039C74.486 26.5677 74.6136 26.6178 74.7822 26.6543C74.9554 26.6862 75.1696 26.7021 75.4248 26.7021H76.7236C77.5622 26.7021 78.2002 26.8822 78.6377 27.2422C79.0798 27.6022 79.3008 28.1309 79.3008 28.8281C79.3008 29.7214 78.9271 30.4141 78.1797 30.9062C77.4368 31.3984 76.3682 31.6445 74.9736 31.6445ZM75.0625 30.2842C75.5592 30.2842 75.9854 30.2363 76.3408 30.1406C76.7008 30.0495 76.9766 29.9173 77.168 29.7441C77.3594 29.5755 77.4551 29.3727 77.4551 29.1357C77.4551 28.9443 77.3981 28.7917 77.2842 28.6777C77.1748 28.5684 77.0062 28.4909 76.7783 28.4453C76.555 28.3997 76.2679 28.377 75.917 28.377H74.8369C74.5817 28.377 74.3516 28.418 74.1465 28.5C73.946 28.582 73.7865 28.696 73.668 28.8418C73.5495 28.9922 73.4902 29.1654 73.4902 29.3613C73.4902 29.6484 73.627 29.874 73.9004 30.0381C74.1784 30.2021 74.5658 30.2842 75.0625 30.2842ZM75.3975 24.4873C75.7894 24.4873 76.0765 24.3665 76.2588 24.125C76.4411 23.8835 76.5322 23.5553 76.5322 23.1406C76.5322 22.6803 76.4365 22.3363 76.2451 22.1084C76.0583 21.876 75.7757 21.7598 75.3975 21.7598C75.0146 21.7598 74.7275 21.876 74.5361 22.1084C74.3447 22.3363 74.249 22.6803 74.249 23.1406C74.249 23.5553 74.3424 23.8835 74.5293 24.125C74.7207 24.3665 75.0101 24.4873 75.3975 24.4873ZM82.7393 28.2812H80.6543V17.6445H82.7393V28.2812ZM88.085 20.4951C88.7913 20.4951 89.3997 20.6318 89.9102 20.9053C90.4206 21.1742 90.8148 21.5661 91.0928 22.0811C91.3708 22.596 91.5098 23.2249 91.5098 23.9678V24.9795H86.5811C86.6038 25.5674 86.7793 26.0299 87.1074 26.3672C87.4401 26.6999 87.9004 26.8662 88.4883 26.8662C88.9759 26.8662 89.4225 26.8161 89.8281 26.7158C90.2337 26.6156 90.6507 26.4652 91.0791 26.2646V27.8779C90.7008 28.0648 90.3044 28.2015 89.8896 28.2881C89.4795 28.3747 88.9805 28.418 88.3926 28.418C87.627 28.418 86.9479 28.2767 86.3555 27.9941C85.7676 27.7116 85.305 27.2809 84.9678 26.7021C84.6351 26.1234 84.4688 25.3942 84.4688 24.5146C84.4688 23.6214 84.6191 22.8786 84.9199 22.2861C85.2253 21.6891 85.6491 21.2425 86.1914 20.9463C86.7337 20.6455 87.3649 20.4951 88.085 20.4951ZM88.0986 21.9785C87.693 21.9785 87.3558 22.1084 87.0869 22.3682C86.8226 22.6279 86.6699 23.0358 86.6289 23.5918H89.5547C89.5501 23.2819 89.4932 23.0062 89.3838 22.7646C89.279 22.5231 89.1195 22.3317 88.9053 22.1904C88.6956 22.0492 88.4268 21.9785 88.0986 21.9785ZM101.094 20.4951C101.955 20.4951 102.65 20.8301 103.179 21.5C103.712 22.1699 103.979 23.152 103.979 24.4463C103.979 25.3122 103.853 26.0413 103.603 26.6338C103.352 27.2217 103.006 27.666 102.563 27.9668C102.121 28.2676 101.613 28.418 101.039 28.418C100.67 28.418 100.353 28.3724 100.089 28.2812C99.8245 28.1855 99.599 28.0648 99.4121 27.9189C99.2253 27.7686 99.0635 27.609 98.9268 27.4404H98.8174C98.8538 27.6227 98.8812 27.8096 98.8994 28.001C98.9176 28.1924 98.9268 28.3792 98.9268 28.5615V31.6445H96.8418V20.6387H98.5371L98.8311 21.6299H98.9268C99.0635 21.4248 99.2298 21.2357 99.4258 21.0625C99.6217 20.8893 99.8564 20.7526 100.13 20.6523C100.408 20.5475 100.729 20.4951 101.094 20.4951ZM100.424 22.1631C100.059 22.1631 99.7699 22.2383 99.5557 22.3887C99.3415 22.5391 99.1842 22.7646 99.084 23.0654C98.9883 23.3662 98.9359 23.7467 98.9268 24.207V24.4326C98.9268 24.9248 98.9723 25.3418 99.0635 25.6836C99.1592 26.0254 99.3164 26.2852 99.5352 26.4629C99.7585 26.6406 100.064 26.7295 100.451 26.7295C100.77 26.7295 101.032 26.6406 101.237 26.4629C101.442 26.2852 101.595 26.0254 101.695 25.6836C101.8 25.3372 101.853 24.9157 101.853 24.4189C101.853 23.6715 101.736 23.1087 101.504 22.7305C101.271 22.3522 100.911 22.1631 100.424 22.1631ZM107.786 28.2812H105.701V17.6445H107.786V28.2812ZM113.111 20.4814C114.137 20.4814 114.923 20.7048 115.47 21.1514C116.017 21.598 116.29 22.277 116.29 23.1885V28.2812H114.834L114.431 27.2422H114.376C114.157 27.5156 113.934 27.7389 113.706 27.9121C113.478 28.0853 113.216 28.2129 112.92 28.2949C112.624 28.377 112.264 28.418 111.84 28.418C111.389 28.418 110.983 28.3314 110.623 28.1582C110.268 27.985 109.987 27.7207 109.782 27.3652C109.577 27.0052 109.475 26.5495 109.475 25.998C109.475 25.1868 109.759 24.5898 110.329 24.207C110.899 23.8197 111.753 23.6055 112.893 23.5645L114.219 23.5234V23.1885C114.219 22.7874 114.114 22.4935 113.904 22.3066C113.695 22.1198 113.403 22.0264 113.029 22.0264C112.66 22.0264 112.298 22.0788 111.942 22.1836C111.587 22.2884 111.231 22.4206 110.876 22.5801L110.186 21.1719C110.591 20.9577 111.045 20.7891 111.546 20.666C112.052 20.543 112.574 20.4814 113.111 20.4814ZM114.219 24.7402L113.412 24.7676C112.738 24.7858 112.268 24.9066 112.004 25.1299C111.744 25.3532 111.614 25.6471 111.614 26.0117C111.614 26.3307 111.708 26.5586 111.895 26.6953C112.081 26.8275 112.325 26.8936 112.626 26.8936C113.073 26.8936 113.449 26.7614 113.754 26.4971C114.064 26.2327 114.219 25.8568 114.219 25.3691V24.7402ZM117.35 20.6387H119.633L121.075 24.9385C121.121 25.0752 121.16 25.2142 121.191 25.3555C121.223 25.4967 121.251 25.6426 121.273 25.793C121.296 25.9434 121.314 26.1006 121.328 26.2646H121.369C121.396 26.0186 121.433 25.7884 121.479 25.5742C121.529 25.36 121.59 25.1481 121.663 24.9385L123.078 20.6387H125.313L122.08 29.2588C121.884 29.7874 121.629 30.2272 121.314 30.5781C121 30.9336 120.638 31.2002 120.228 31.3779C119.822 31.5557 119.375 31.6445 118.888 31.6445C118.651 31.6445 118.446 31.6309 118.272 31.6035C118.099 31.5807 117.951 31.5557 117.828 31.5283V29.874C117.924 29.8968 118.045 29.9173 118.19 29.9355C118.336 29.9538 118.489 29.9629 118.648 29.9629C118.94 29.9629 119.191 29.9014 119.4 29.7783C119.61 29.6553 119.785 29.4889 119.927 29.2793C120.068 29.0742 120.18 28.8486 120.262 28.6025L120.385 28.2266L117.35 20.6387Z" fill="white"/>
<path d="M23.4891 18.3555L14.2266 26.7058C14.3277 27.0217 14.513 27.3135 14.7681 27.5588C15.0231 27.8041 15.3412 27.9963 15.6976 28.1206C16.054 28.2449 16.4392 28.2979 16.8236 28.2755C17.2079 28.2532 17.5811 28.156 17.9142 27.9916L28.3509 22.878L23.4891 18.3555Z" fill="#EA4335"/>
<path d="M32.856 16.9357L28.3509 14.7188L23.2891 18.554L28.3683 22.877L32.8473 20.6601C33.2455 20.4789 33.5783 20.2093 33.8104 19.8801C34.0424 19.5508 34.165 19.1742 34.165 18.7905C34.165 18.4067 34.0424 18.0301 33.8104 17.7009C33.5783 17.3716 33.2455 17.1021 32.8473 16.9209L32.856 16.9357Z" fill="#FBBC04"/>
<path d="M14.2258 10.8633C14.1798 11.0378 14.1594 11.2165 14.165 11.3953V26.1747C14.1665 26.3594 14.1957 26.5432 14.2519 26.7216L23.8189 18.5929L14.2258 10.8633Z" fill="#4285F4"/>
<path d="M23.5574 18.7844L28.3496 14.7127L17.9129 9.58423C17.5208 9.38618 17.0732 9.28153 16.617 9.28125C16.0668 9.28259 15.5323 9.4373 15.0956 9.72163C14.6588 10.006 14.3439 10.4042 14.1992 10.8553L23.5574 18.7844Z" fill="#34A853"/>
</svg>
