<svg width="32" height="32" viewBox="0 0 32 32" fill="none" xmlns="http://www.w3.org/2000/svg">
<g clip-path="url(#clip0_2328_19344)">
<path d="M11.1468 1.05323C7.94946 2.1624 5.19211 4.26764 3.27973 7.05973C1.36735 9.85182 0.400732 13.1836 0.52186 16.5656C0.642987 19.9477 1.84547 23.2018 3.9527 25.8499C6.05992 28.498 8.9608 30.4006 12.2293 31.2782C14.8791 31.962 17.6553 31.992 20.3193 31.3657C22.7325 30.8237 24.9637 29.6641 26.7943 28.0007C28.6995 26.2166 30.0823 23.9469 30.7943 21.4357C31.5681 18.7049 31.7057 15.8331 31.1968 13.0407H16.3168V19.2132H24.9343C24.762 20.1977 24.393 21.1373 23.8491 21.9758C23.3053 22.8143 22.5979 23.5345 21.7693 24.0932C20.717 24.7893 19.5307 25.2577 18.2868 25.4682C17.0391 25.7002 15.7594 25.7002 14.5118 25.4682C13.2472 25.2068 12.051 24.6849 10.9993 23.9357C9.30962 22.7397 8.04094 21.0405 7.37425 19.0807C6.69629 17.0842 6.69629 14.9197 7.37425 12.9232C7.84882 11.5238 8.63334 10.2496 9.66925 9.19573C10.8547 7.9676 12.3556 7.08972 14.0071 6.65842C15.6587 6.22712 17.3972 6.25905 19.0318 6.75073C20.3087 7.14271 21.4764 7.82757 22.4418 8.75073C23.4134 7.78406 24.3834 6.81489 25.3518 5.84323C25.8518 5.32073 26.3968 4.82323 26.8893 4.28823C25.4157 2.91692 23.686 1.84987 21.7993 1.14823C18.3635 -0.0992977 14.6042 -0.132824 11.1468 1.05323Z" fill="white"/>
<path d="M11.145 1.05444C14.6022 -0.132415 18.3615 -0.0997714 21.7975 1.14694C23.6845 1.85335 25.4135 2.92554 26.885 4.30194C26.385 4.83694 25.8575 5.33694 25.3475 5.85694C24.3775 6.82528 23.4083 7.79028 22.44 8.75194C21.4746 7.82879 20.3069 7.14392 19.03 6.75194C17.3959 6.25854 15.6575 6.22476 14.0055 6.6543C12.3536 7.08384 10.8518 7.9601 9.665 9.18694C8.62908 10.2408 7.84457 11.515 7.37 12.9144L2.1875 8.90194C4.04252 5.22335 7.25437 2.4095 11.145 1.05444Z" fill="#E33629"/>
<path d="M0.817805 12.8734C1.09636 11.4929 1.55881 10.156 2.19281 8.89844L7.37531 12.9209C6.69734 14.9175 6.69734 17.0819 7.37531 19.0784C5.64864 20.4118 3.92114 21.7518 2.19281 23.0984C0.605682 19.9392 0.121637 16.3397 0.817805 12.8734Z" fill="#F8BD00"/>
<path d="M16.3175 13.0391H31.1975C31.7065 15.8314 31.5688 18.7032 30.795 21.4341C30.0831 23.9453 28.7002 26.2149 26.795 27.9991C25.1225 26.6941 23.4425 25.3991 21.77 24.0941C22.5992 23.5348 23.3069 22.8138 23.8508 21.9744C24.3946 21.135 24.7634 20.1944 24.935 19.2091H16.3175C16.315 17.1541 16.3175 15.0966 16.3175 13.0391Z" fill="#587DBD"/>
<path d="M2.1875 23.0981C3.91583 21.7648 5.64333 20.4248 7.37 19.0781C8.03802 21.0386 9.30851 22.7379 11 23.9331C12.055 24.6788 13.2538 25.1965 14.52 25.4531C15.7676 25.6851 17.0474 25.6851 18.295 25.4531C19.539 25.2426 20.7252 24.7742 21.7775 24.0781C23.45 25.3831 25.13 26.6781 26.8025 27.9831C24.9722 29.6474 22.741 30.8078 20.3275 31.3506C17.6635 31.9769 14.8873 31.9469 12.2375 31.2631C10.1418 30.7036 8.18419 29.7171 6.4875 28.3656C4.69165 26.9398 3.22489 25.1431 2.1875 23.0981Z" fill="#319F43"/>
</g>
<defs>
<clipPath id="clip0_2328_19344">
<rect width="32" height="32" fill="white"/>
</clipPath>
</defs>
</svg>
