<svg version="1.1" id="Layer_1" xmlns="http://www.w3.org/2000/svg" xmlns:xlink="http://www.w3.org/1999/xlink" x="0px" y="0px"
	 width="100%" viewBox="0 0 1280 1280" enable-background="new 0 0 1280 1280" xml:space="preserve">
<path fill="#000000" opacity="1.000000" stroke="none" 
	d="
M719.000000,1281.000000 
	C479.333344,1281.000000 240.166672,1281.000000 1.000000,1281.000000 
	C1.000000,854.333313 1.000000,427.666656 1.000000,1.000000 
	C427.666656,1.000000 854.333313,1.000000 1281.000000,1.000000 
	C1281.000000,427.666656 1281.000000,854.333313 1281.000000,1281.000000 
	C1093.833374,1281.000000 906.666687,1281.000000 719.000000,1281.000000 
M929.810730,1075.875122 
	C929.579224,1076.237427 929.347778,1076.599731 928.937744,1077.889282 
	C928.995544,1085.270874 929.053345,1092.652466 929.007629,1100.958008 
	C929.041870,1105.958252 929.076172,1110.958374 928.933655,1116.829834 
	C928.992249,1118.897583 929.050903,1120.965332 929.006958,1123.672729 
	C929.041443,1124.101807 929.075989,1124.530762 928.935303,1125.640259 
	C928.993530,1126.101440 929.051758,1126.562500 929.069763,1127.562744 
	C929.374084,1127.725098 929.678406,1127.887451 930.034302,1128.879761 
	C935.241455,1131.263916 936.962097,1130.354980 936.975891,1125.117065 
	C937.004517,1114.235596 936.984558,1103.354248 936.984558,1091.651367 
	C945.365356,1104.465332 953.151245,1116.533081 961.188599,1128.430908 
	C962.089050,1129.763916 964.414734,1130.134033 966.079529,1130.950562 
	C966.721863,1129.443848 967.909546,1127.941772 967.922607,1126.429565 
	C968.057678,1110.770752 967.943481,1095.109985 968.052429,1079.450684 
	C968.073914,1076.358032 967.332275,1074.952515 963.899841,1074.930542 
	C960.217651,1074.906982 959.947571,1076.794556 959.970703,1079.650635 
	C960.059631,1090.607788 960.006775,1101.566040 960.006775,1113.358887 
	C959.369507,1112.325562 959.186584,1112.008423 958.984314,1111.704102 
	C950.920898,1099.568848 942.898743,1087.405151 934.665039,1075.386597 
	C934.247864,1074.777710 932.003906,1075.420532 930.479492,1075.670532 
	C930.479492,1075.670532 930.516113,1075.898438 929.810730,1075.875122 
M1055.974487,1129.084351 
	C1055.974487,1129.084351 1055.911011,1129.102417 1056.375732,1129.846069 
	C1063.872925,1129.885620 1071.370117,1129.938965 1078.867310,1129.960571 
	C1085.419189,1129.979492 1085.419189,1129.963745 1084.453613,1122.904541 
	C1077.426758,1122.904541 1070.340088,1122.904541 1062.994019,1122.904541 
	C1062.994019,1118.057251 1063.160400,1113.578491 1062.940430,1109.118774 
	C1062.770020,1105.663330 1064.332642,1104.850708 1067.434448,1104.959473 
	C1072.553101,1105.139160 1077.682739,1105.008301 1082.772461,1105.008301 
	C1083.167847,1098.022461 1083.167847,1098.020874 1077.015381,1098.017456 
	C1072.411011,1098.014771 1067.806519,1098.016846 1063.098877,1098.016846 
	C1063.098877,1092.646118 1063.098877,1087.838501 1064.022949,1082.998169 
	C1069.522583,1082.997314 1075.022339,1083.031860 1080.521606,1082.984985 
	C1085.355957,1082.943726 1085.846069,1082.076294 1083.966797,1076.099976 
	C1080.898682,1075.741455 1077.826904,1075.057373 1074.763184,1075.092285 
	C1068.496338,1075.163818 1062.233887,1075.621460 1055.355103,1076.132080 
	C1055.281128,1076.749023 1055.207153,1077.366089 1054.964355,1078.909180 
	C1055.019531,1095.281494 1055.074707,1111.653931 1055.072632,1128.559204 
	C1055.362427,1128.753296 1055.652100,1128.947510 1055.974487,1129.084351 
M1027.005371,1127.737061 
	C1026.055908,1126.346191 1029.084351,1123.183350 1024.056030,1123.066162 
	C1017.703857,1123.066162 1011.351685,1123.066162 1005.054504,1123.066162 
	C1005.054504,1116.897339 1005.054504,1111.458374 1005.984253,1106.025513 
	C1009.630737,1106.026123 1013.339172,1106.436768 1016.904419,1105.898926 
	C1019.806763,1105.460938 1024.941406,1108.855469 1025.009888,1102.128052 
	C1025.082153,1095.032227 1019.661377,1098.693237 1016.649719,1098.083618 
	C1012.861816,1097.316772 1008.918884,1097.315674 1004.936829,1096.062500 
	C1004.976074,1091.714722 1005.015320,1087.366943 1005.984741,1082.995361 
	C1011.643066,1083.005371 1017.304871,1082.901367 1022.958374,1083.071533 
	C1025.962646,1083.161987 1027.103394,1082.108765 1027.091064,1079.047363 
	C1027.078979,1076.070435 1026.119019,1074.876831 1023.036072,1074.943115 
	C1015.714661,1075.100830 1008.385803,1075.092651 1001.063660,1074.954590 
	C998.099548,1074.898804 996.900879,1075.844360 996.922302,1078.951294 
	C997.029053,1094.432495 996.913757,1109.915283 997.057617,1125.395874 
	C997.071350,1126.880615 998.333252,1128.353638 999.943604,1129.957031 
	C1007.351196,1129.958862 1014.760925,1130.054688 1022.164673,1129.886841 
	C1023.731384,1129.851318 1025.276245,1128.852173 1027.005371,1127.737061 
M130.984528,674.251526 
	C131.320908,675.671997 131.575958,677.117737 132.007156,678.508789 
	C134.398056,686.222290 135.351837,694.864624 139.540100,701.442932 
	C150.293915,718.333435 162.103134,734.599121 174.213669,750.565979 
	C187.324402,767.851562 201.009644,784.808411 217.631256,798.904358 
	C226.051559,806.045166 235.085846,812.825378 244.791046,817.984436 
	C254.295456,823.036865 264.943542,826.001587 275.218414,829.505127 
	C278.637726,830.671021 280.867004,831.903198 279.986053,835.875061 
	C279.354553,838.722534 278.690765,841.563110 278.006165,844.398315 
	C273.856323,861.584778 269.820374,878.799988 265.506409,895.945251 
	C260.800415,914.648499 255.786484,933.273987 250.995117,951.955994 
	C246.925491,967.823853 243.094238,983.753479 238.953430,999.602417 
	C233.746567,1019.531677 228.692047,1039.513550 222.830399,1059.252563 
	C220.470779,1067.198364 220.322769,1073.740356 226.379303,1079.957886 
	C244.799072,1098.867554 263.011749,1117.979614 281.530426,1136.791016 
	C283.345062,1138.634399 286.712280,1139.835083 289.362183,1139.841064 
	C359.857574,1139.998779 430.353394,1139.960205 500.849121,1139.955811 
	C503.682281,1139.955566 506.576019,1140.313110 509.325897,1139.836548 
	C510.978760,1139.550171 513.259460,1138.288086 513.774780,1136.909912 
	C515.243652,1132.981812 515.953674,1128.769897 516.960632,1124.669189 
	C522.693604,1101.321777 528.328369,1077.949219 534.340454,1054.674072 
	C534.832031,1052.770996 537.791626,1050.376221 539.782471,1050.197876 
	C546.175659,1049.625244 552.653442,1050.059937 559.096802,1049.973999 
	C599.954529,1049.428955 640.874146,1051.718994 681.650757,1047.847534 
	C691.638916,1046.899292 701.669678,1044.908081 711.312866,1042.122437 
	C732.604431,1035.972168 752.159180,1026.053223 770.150635,1013.008850 
	C790.026794,998.597900 807.210754,981.630798 821.256958,961.435303 
	C837.612000,937.920105 847.085144,911.551331 853.976868,884.076294 
	C860.814758,856.815979 867.492188,829.515381 874.348145,802.259644 
	C878.465881,785.889282 882.783691,769.569092 887.024048,753.229614 
	C893.551208,728.078613 900.199829,702.958435 906.588013,677.772156 
	C911.901855,656.821350 916.770935,635.757629 922.093872,614.809204 
	C931.172363,579.081116 940.498779,543.416016 949.629272,507.701111 
	C954.577515,488.345642 959.251465,468.920013 964.201111,449.564911 
	C970.919006,423.295502 978.341553,397.190735 984.364075,370.765137 
	C987.727295,356.008087 989.413940,340.793945 990.778687,325.688446 
	C991.447266,318.288116 989.601501,310.670380 988.993835,303.142914 
	C987.718201,287.341125 982.515991,272.737122 973.340393,260.063538 
	C959.449219,240.876740 945.127319,221.942078 929.965881,203.752655 
	C916.499207,187.596634 902.038147,172.180939 884.106262,160.613205 
	C865.521057,148.624054 844.814880,143.384277 823.070251,142.117416 
	C811.439148,141.439804 799.734863,142.027237 788.063599,142.027374 
	C748.232666,142.027878 708.400269,142.224518 668.571594,141.920883 
	C651.729065,141.792496 635.825317,146.142426 620.332520,151.541382 
	C600.907043,158.310791 582.886353,167.984253 566.360046,180.675644 
	C549.893311,193.321274 536.150818,208.250809 524.063965,224.895981 
	C520.256348,230.139618 515.919250,233.193176 508.938080,233.153503 
	C418.305969,232.638397 327.672729,232.319397 237.039444,232.074097 
	C233.167145,232.063614 229.841049,232.828201 228.705017,238.301270 
	C225.545944,253.520798 221.603989,268.587189 217.653015,283.630493 
	C213.289780,300.243378 208.358337,316.707916 204.057678,333.336182 
	C196.306488,363.305725 188.852585,393.352051 181.251175,423.360443 
	C177.191345,439.387695 173.068588,455.399048 168.999664,471.424011 
	C162.741058,496.072906 156.541870,520.736877 150.245956,545.376221 
	C145.552826,563.743103 140.495438,582.021057 136.087708,600.455139 
	C133.559647,611.028076 131.673981,621.786377 130.131027,632.551758 
	C129.151855,639.383789 128.947617,646.391052 129.105682,653.303528 
	C129.258728,659.997192 130.320068,666.670227 130.984528,674.251526 
M1135.805298,1129.727051 
	C1139.537231,1126.761597 1143.894897,1124.313965 1146.868652,1120.720947 
	C1152.748291,1113.616455 1153.094116,1104.614624 1151.760498,1096.156616 
	C1150.325684,1087.057007 1146.199219,1078.423706 1136.209961,1076.025146 
	C1129.982422,1074.529663 1123.208130,1075.359985 1116.685791,1075.020508 
	C1113.798096,1074.870239 1112.953247,1076.147949 1112.966187,1078.867065 
	C1113.041016,1094.672852 1113.017944,1110.479004 1112.991333,1126.285034 
	C1112.985840,1129.622314 1114.631348,1131.158325 1117.870972,1130.990967 
	C1123.585083,1130.695679 1129.295532,1130.324585 1135.805298,1129.727051 
M805.931213,1077.453491 
	C796.114807,1070.833862 782.279480,1074.490356 777.448364,1084.117310 
	C772.015015,1094.944580 771.860474,1105.957397 775.750061,1117.398193 
	C778.070923,1124.224976 786.103027,1131.607666 795.954163,1131.071899 
	C804.203857,1130.623291 810.921326,1125.435059 814.084351,1117.363403 
	C817.049744,1109.795898 816.340149,1102.012817 815.691589,1094.493652 
	C815.147156,1088.180664 813.122620,1081.482056 805.931213,1077.453491 
M851.981506,1112.193359 
	C851.977234,1101.870361 852.033447,1091.546875 851.927368,1081.224854 
	C851.899902,1078.554810 853.338684,1075.024780 848.123291,1074.954468 
	C842.572815,1074.879395 844.106750,1078.651978 844.076294,1081.474121 
	C843.966675,1091.629517 844.027710,1101.786621 844.012390,1111.943115 
	C843.995178,1123.354126 847.138184,1127.176025 858.442810,1130.087280 
	C872.514343,1133.711304 880.203430,1124.253174 880.866882,1112.677979 
	C881.494568,1101.725464 880.940613,1090.707520 881.012695,1079.719238 
	C881.031128,1076.910278 880.842712,1075.001587 877.134338,1074.943726 
	C873.172852,1074.882202 872.947510,1076.905151 872.976013,1079.940918 
	C873.080688,1091.095337 873.007019,1102.251465 873.031921,1113.406860 
	C873.041321,1117.630249 871.561340,1121.291504 867.549377,1122.749512 
	C858.951843,1125.874512 853.482422,1122.307007 851.981506,1112.193359 
M552.543762,1110.017334 
	C550.407349,1116.182983 548.270996,1122.348511 546.135925,1128.510254 
	C550.755981,1131.167725 553.334412,1130.449829 554.910034,1126.083252 
	C558.574402,1115.927856 558.592834,1116.302246 568.868408,1115.796387 
	C574.424438,1115.522949 576.838806,1117.166992 578.186584,1122.627319 
	C580.083984,1130.313965 580.545593,1130.200073 588.108948,1129.613892 
	C587.774231,1128.227173 587.571899,1126.875000 587.123657,1125.609985 
	C581.415771,1109.501099 575.695312,1093.396362 569.891968,1077.321777 
	C569.465881,1076.141602 568.375916,1075.201172 567.594727,1074.149292 
	C566.430969,1075.163818 564.659912,1075.957886 564.198975,1077.227539 
	C560.330688,1087.882080 556.702759,1098.623901 552.543762,1110.017334 
M724.060425,1099.382446 
	C727.674255,1104.974854 729.967651,1110.876465 729.088379,1117.756104 
	C728.733032,1120.536865 729.146851,1123.407471 729.004395,1126.226685 
	C728.862183,1129.040039 730.043091,1129.896118 732.804382,1130.041138 
	C736.712646,1130.246582 737.336853,1128.203613 736.973877,1125.124512 
	C735.607483,1113.534058 738.169067,1102.946045 744.319824,1092.984497 
	C747.605042,1087.663940 749.994202,1081.789917 752.825867,1076.089111 
	C747.165466,1074.383667 745.887878,1074.590698 744.084106,1078.111206 
	C740.425781,1085.250977 736.969666,1092.494263 733.185730,1100.192017 
	C729.698730,1093.398438 726.009460,1087.161865 723.257568,1080.536011 
	C721.208435,1075.602173 718.268372,1074.082153 712.108215,1075.709839 
	C716.145996,1083.495483 720.066162,1091.054321 724.060425,1099.382446 
M610.083496,1085.785767 
	C610.083496,1100.385010 610.083496,1114.984253 610.083496,1129.952026 
	C619.346924,1129.952026 628.289551,1129.850464 637.227417,1130.013306 
	C639.942017,1130.062744 641.869202,1129.435425 641.886230,1126.557495 
	C641.902710,1123.774902 640.163513,1122.889038 637.359558,1122.979004 
	C630.952942,1123.184692 624.535278,1123.044067 617.944763,1123.044067 
	C617.944763,1108.064087 617.760437,1093.760742 618.047485,1079.466797 
	C618.144470,1074.638794 615.446960,1075.035034 612.324036,1075.046387 
	C608.237122,1075.061279 609.809753,1078.090454 609.657654,1080.048462 
	C609.534302,1081.636475 609.923340,1083.264526 610.083496,1085.785767 
M678.435303,1123.996216 
	C676.717590,1123.679077 675.004272,1123.120239 673.281311,1123.088501 
	C667.210815,1122.976196 661.136963,1123.044678 654.942078,1123.044678 
	C654.942078,1108.043823 654.876709,1093.749878 654.993408,1079.457275 
	C655.018799,1076.345703 654.230774,1074.944824 650.817627,1074.985107 
	C647.563110,1075.023682 646.982178,1076.491577 646.996155,1079.288818 
	C647.073364,1094.752808 647.093933,1110.218018 646.967102,1125.681396 
	C646.940613,1128.911865 647.955872,1130.093262 651.261963,1130.010864 
	C658.906189,1129.820068 666.567078,1129.740112 674.204285,1130.042236 
	C678.429688,1130.209351 679.547058,1128.455444 678.435303,1123.996216 
z"/>
<path fill="#EF404C" opacity="1.000000" stroke="none" 
	d="
M130.983505,673.801880 
	C130.320068,666.670227 129.258728,659.997192 129.105682,653.303528 
	C128.947617,646.391052 129.151855,639.383789 130.131027,632.551758 
	C131.673981,621.786377 133.559647,611.028076 136.087708,600.455139 
	C140.495438,582.021057 145.552826,563.743103 150.245956,545.376221 
	C156.541870,520.736877 162.741058,496.072906 168.999664,471.424011 
	C173.068588,455.399048 177.191345,439.387695 181.251175,423.360443 
	C188.852585,393.352051 196.306488,363.305725 204.057678,333.336182 
	C208.358337,316.707916 213.289780,300.243378 217.653015,283.630493 
	C221.603989,268.587189 225.545944,253.520798 228.705017,238.301270 
	C229.841049,232.828201 233.167145,232.063614 237.039444,232.074097 
	C327.672729,232.319397 418.305969,232.638397 508.938080,233.153503 
	C515.919250,233.193176 520.256348,230.139618 524.063965,224.895981 
	C536.150818,208.250809 549.893311,193.321274 566.360046,180.675644 
	C582.886353,167.984253 600.907043,158.310791 620.332520,151.541382 
	C635.825317,146.142426 651.729065,141.792496 668.571594,141.920883 
	C708.400269,142.224518 748.232666,142.027878 788.063599,142.027374 
	C799.734863,142.027237 811.439148,141.439804 823.070251,142.117416 
	C844.814880,143.384277 865.521057,148.624054 884.106262,160.613205 
	C902.038147,172.180939 916.499207,187.596634 929.965881,203.752655 
	C945.127319,221.942078 959.449219,240.876740 973.340393,260.063538 
	C982.515991,272.737122 987.718201,287.341125 988.993835,303.142914 
	C989.601501,310.670380 991.447266,318.288116 990.778687,325.688446 
	C989.413940,340.793945 987.727295,356.008087 984.364075,370.765137 
	C978.341553,397.190735 970.919006,423.295502 964.201111,449.564911 
	C959.251465,468.920013 954.577515,488.345642 949.629272,507.701111 
	C940.498779,543.416016 931.172363,579.081116 922.093872,614.809204 
	C916.770935,635.757629 911.901855,656.821350 906.588013,677.772156 
	C900.199829,702.958435 893.551208,728.078613 887.024048,753.229614 
	C882.783691,769.569092 878.465881,785.889282 874.348145,802.259644 
	C867.492188,829.515381 860.814758,856.815979 853.976868,884.076294 
	C847.085144,911.551331 837.612000,937.920105 821.256958,961.435303 
	C807.210754,981.630798 790.026794,998.597900 770.150635,1013.008850 
	C752.159180,1026.053223 732.604431,1035.972168 711.312866,1042.122437 
	C701.669678,1044.908081 691.638916,1046.899292 681.650757,1047.847534 
	C640.874146,1051.718994 599.954529,1049.428955 559.096802,1049.973999 
	C552.653442,1050.059937 546.175659,1049.625244 539.782471,1050.197876 
	C537.791626,1050.376221 534.832031,1052.770996 534.340454,1054.674072 
	C528.328369,1077.949219 522.693604,1101.321777 516.960632,1124.669189 
	C515.953674,1128.769897 515.243652,1132.981812 513.774780,1136.909912 
	C513.259460,1138.288086 510.978760,1139.550171 509.325897,1139.836548 
	C506.576019,1140.313110 503.682281,1139.955566 500.849121,1139.955811 
	C430.353394,1139.960205 359.857574,1139.998779 289.362183,1139.841064 
	C286.712280,1139.835083 283.345062,1138.634399 281.530426,1136.791016 
	C263.011749,1117.979614 244.799072,1098.867554 226.379303,1079.957886 
	C220.322769,1073.740356 220.470779,1067.198364 222.830399,1059.252563 
	C228.692047,1039.513550 233.746567,1019.531677 238.953430,999.602417 
	C243.094238,983.753479 246.925491,967.823853 250.995117,951.955994 
	C255.786484,933.273987 260.800415,914.648499 265.506409,895.945251 
	C269.820374,878.799988 273.856323,861.584778 278.006165,844.398315 
	C278.690765,841.563110 279.354553,838.722534 279.986053,835.875061 
	C280.867004,831.903198 278.637726,830.671021 275.218414,829.505127 
	C264.943542,826.001587 254.295456,823.036865 244.791046,817.984436 
	C235.085846,812.825378 226.051559,806.045166 217.631256,798.904358 
	C201.009644,784.808411 187.324402,767.851562 174.213669,750.565979 
	C162.103134,734.599121 150.293915,718.333435 139.540100,701.442932 
	C135.351837,694.864624 134.398056,686.222290 132.007156,678.508789 
	C131.575958,677.117737 131.320908,675.671997 130.983505,673.801880 
M638.498291,1025.066284 
	C643.996643,1025.142944 649.505005,1025.035034 654.991516,1025.330933 
	C671.247498,1026.207520 687.373108,1025.042236 702.897827,1020.229736 
	C762.568176,1001.732605 803.450928,962.696289 824.832764,904.348877 
	C833.032227,881.973877 837.426331,858.193787 843.384338,835.010254 
	C855.260437,788.798401 867.057556,742.566162 878.816650,696.324402 
	C894.965210,632.821655 911.117798,569.319763 927.137634,505.784576 
	C940.387939,453.233307 953.923523,400.746521 966.399841,348.010498 
	C972.978271,320.204285 970.159546,292.586090 952.616577,269.302948 
	C933.414062,243.817154 912.901672,219.155380 891.215698,195.750885 
	C870.675720,173.583191 843.179871,165.484207 813.393127,165.377808 
	C767.730591,165.214691 722.065369,165.107224 676.404480,165.429703 
	C652.257202,165.600250 629.305237,171.461914 607.765503,182.548828 
	C578.345947,197.691696 555.046570,219.581345 537.051331,247.170670 
	C532.522705,254.113739 526.923157,257.364410 518.447998,257.094757 
	C502.807343,256.597076 487.141693,256.858643 471.486450,256.852936 
	C418.499969,256.833557 365.513519,256.835083 312.527039,256.829865 
	C294.029999,256.828033 275.532349,256.739471 257.036255,256.870941 
	C248.899734,256.928741 247.286316,258.213165 245.213608,266.160980 
	C240.724152,283.375793 236.432663,300.642273 232.071915,317.890594 
	C222.981476,353.846497 213.942093,389.815399 204.801987,425.758667 
	C192.550201,473.938538 179.966232,522.035767 168.039200,570.295593 
	C162.303696,593.503052 156.717590,616.837219 152.947556,640.415161 
	C149.223938,663.702881 153.994019,686.391113 168.231644,705.399414 
	C184.673843,727.351013 202.837570,748.018311 220.370804,769.146118 
	C241.955017,795.155396 269.616180,808.597839 303.523499,809.027222 
	C309.181396,809.098938 310.176178,810.939636 308.527557,817.392090 
	C296.056519,866.201965 283.586151,915.011902 271.099091,963.817688 
	C263.475983,993.612793 255.946182,1023.432739 248.102219,1053.169678 
	C246.025513,1061.042603 247.352448,1067.171631 253.252838,1073.074341 
	C265.258545,1085.084961 276.853119,1097.515625 288.367859,1110.003174 
	C292.496796,1114.481079 297.095642,1116.808594 303.198639,1116.796021 
	C339.695068,1116.720459 376.191772,1116.756836 412.688385,1116.766724 
	C437.519623,1116.773438 462.350861,1116.791992 487.182098,1116.820557 
	C491.806549,1116.825806 495.682404,1116.107666 497.046722,1110.582031 
	C503.260803,1085.414551 509.726074,1060.309204 515.934814,1035.140503 
	C518.047607,1026.575806 519.615112,1025.031860 528.507690,1025.030396 
	C564.838135,1025.024658 601.168579,1025.047119 638.498291,1025.066284 
z"/>
<path fill="#F7F7F7" opacity="1.000000" stroke="none" 
	d="
M1135.406372,1129.856079 
	C1129.295532,1130.324585 1123.585083,1130.695679 1117.870972,1130.990967 
	C1114.631348,1131.158325 1112.985840,1129.622314 1112.991333,1126.285034 
	C1113.017944,1110.479004 1113.041016,1094.672852 1112.966187,1078.867065 
	C1112.953247,1076.147949 1113.798096,1074.870239 1116.685791,1075.020508 
	C1123.208130,1075.359985 1129.982422,1074.529663 1136.209961,1076.025146 
	C1146.199219,1078.423706 1150.325684,1087.057007 1151.760498,1096.156616 
	C1153.094116,1104.614624 1152.748291,1113.616455 1146.868652,1120.720947 
	C1143.894897,1124.313965 1139.537231,1126.761597 1135.406372,1129.856079 
M1134.800049,1083.256714 
	C1130.342651,1082.669067 1125.885376,1082.081421 1121.169189,1081.459717 
	C1121.169189,1095.805176 1121.169189,1109.211792 1121.169189,1123.345093 
	C1125.427490,1122.931152 1129.589600,1123.115234 1133.390747,1122.032715 
	C1140.931641,1119.884888 1142.445190,1113.309570 1143.850464,1106.581787 
	C1145.492554,1098.719604 1141.583740,1087.541748 1134.800049,1083.256714 
z"/>
<path fill="#F6F3F4" opacity="1.000000" stroke="none" 
	d="
M806.212341,1077.717285 
	C813.122620,1081.482056 815.147156,1088.180664 815.691589,1094.493652 
	C816.340149,1102.012817 817.049744,1109.795898 814.084351,1117.363403 
	C810.921326,1125.435059 804.203857,1130.623291 795.954163,1131.071899 
	C786.103027,1131.607666 778.070923,1124.224976 775.750061,1117.398193 
	C771.860474,1105.957397 772.015015,1094.944580 777.448364,1084.117310 
	C782.279480,1074.490356 796.114807,1070.833862 806.212341,1077.717285 
M783.280579,1090.163208 
	C781.458008,1099.513550 780.276001,1108.784546 784.921265,1117.799438 
	C787.224609,1122.269165 790.741333,1123.251099 795.459473,1123.121338 
	C799.854004,1123.000488 802.995117,1121.626099 805.043823,1117.741943 
	C809.962158,1108.417358 809.113342,1098.767334 805.624695,1089.480591 
	C803.756836,1084.508301 799.705811,1081.194824 793.325623,1081.835693 
	C788.114380,1082.359009 785.503906,1085.164551 783.280579,1090.163208 
z"/>
<path fill="#F9F9F9" opacity="1.000000" stroke="none" 
	d="
M930.610474,1075.480469 
	C932.003906,1075.420532 934.247864,1074.777710 934.665039,1075.386597 
	C942.898743,1087.405151 950.920898,1099.568848 958.984314,1111.704102 
	C959.186584,1112.008423 959.369507,1112.325562 960.006775,1113.358887 
	C960.006775,1101.566040 960.059631,1090.607788 959.970703,1079.650635 
	C959.947571,1076.794556 960.217651,1074.906982 963.899841,1074.930542 
	C967.332275,1074.952515 968.073914,1076.358032 968.052429,1079.450684 
	C967.943481,1095.109985 968.057678,1110.770752 967.922607,1126.429565 
	C967.909546,1127.941772 966.721863,1129.443848 966.079529,1130.950562 
	C964.414734,1130.134033 962.089050,1129.763916 961.188599,1128.430908 
	C953.151245,1116.533081 945.365356,1104.465332 936.984558,1091.651367 
	C936.984558,1103.354248 937.004517,1114.235596 936.975891,1125.117065 
	C936.962097,1130.354980 935.241455,1131.263916 930.015381,1128.205200 
	C929.997314,1127.357544 929.998169,1127.184570 930.307251,1126.726807 
	C930.613770,1109.454834 930.612122,1092.467651 930.610474,1075.480469 
z"/>
<path fill="#F9F7F7" opacity="1.000000" stroke="none" 
	d="
M851.979187,1112.653564 
	C853.482422,1122.307007 858.951843,1125.874512 867.549377,1122.749512 
	C871.561340,1121.291504 873.041321,1117.630249 873.031921,1113.406860 
	C873.007019,1102.251465 873.080688,1091.095337 872.976013,1079.940918 
	C872.947510,1076.905151 873.172852,1074.882202 877.134338,1074.943726 
	C880.842712,1075.001587 881.031128,1076.910278 881.012695,1079.719238 
	C880.940613,1090.707520 881.494568,1101.725464 880.866882,1112.677979 
	C880.203430,1124.253174 872.514343,1133.711304 858.442810,1130.087280 
	C847.138184,1127.176025 843.995178,1123.354126 844.012390,1111.943115 
	C844.027710,1101.786621 843.966675,1091.629517 844.076294,1081.474121 
	C844.106750,1078.651978 842.572815,1074.879395 848.123291,1074.954468 
	C853.338684,1075.024780 851.899902,1078.554810 851.927368,1081.224854 
	C852.033447,1091.546875 851.977234,1101.870361 851.979187,1112.653564 
z"/>
<path fill="#F3EFF1" opacity="1.000000" stroke="none" 
	d="
M552.773071,1109.678345 
	C556.702759,1098.623901 560.330688,1087.882080 564.198975,1077.227539 
	C564.659912,1075.957886 566.430969,1075.163818 567.594727,1074.149292 
	C568.375916,1075.201172 569.465881,1076.141602 569.891968,1077.321777 
	C575.695312,1093.396362 581.415771,1109.501099 587.123657,1125.609985 
	C587.571899,1126.875000 587.774231,1128.227173 588.108948,1129.613892 
	C580.545593,1130.200073 580.083984,1130.313965 578.186584,1122.627319 
	C576.838806,1117.166992 574.424438,1115.522949 568.868408,1115.796387 
	C558.592834,1116.302246 558.574402,1115.927856 554.910034,1126.083252 
	C553.334412,1130.449829 550.755981,1131.167725 546.135925,1128.510254 
	C548.270996,1122.348511 550.407349,1116.182983 552.773071,1109.678345 
M571.656555,1108.031250 
	C572.088074,1107.990234 572.519653,1107.949341 572.997437,1108.436157 
	C573.255310,1108.723022 573.513245,1109.009888 573.771118,1109.296753 
	C573.954468,1109.090454 574.137817,1108.884033 574.321167,1108.677734 
	C573.849365,1108.435425 573.377563,1108.193115 573.012756,1107.517212 
	C573.012756,1107.517212 572.968079,1107.072754 573.008606,1106.290771 
	C572.403870,1104.853271 571.799072,1103.415649 571.056885,1101.528809 
	C571.056885,1101.528809 570.973145,1101.066528 570.873474,1100.613525 
	C570.720215,1100.330200 570.496216,1100.123779 570.070312,1099.345215 
	C570.043701,1098.905273 570.017029,1098.465332 569.885864,1097.582764 
	C569.731140,1097.306274 569.506409,1097.109985 569.068420,1096.226807 
	C568.707764,1094.495850 568.347168,1092.764771 568.015259,1090.239990 
	C567.858948,1088.958618 567.702576,1087.677246 567.546265,1086.395874 
	C567.049255,1086.393188 566.552307,1086.390503 566.055298,1086.387817 
	C566.055298,1088.264282 566.055298,1090.140747 565.944031,1092.674927 
	C565.889343,1093.114502 565.834656,1093.553955 565.388733,1094.212036 
	C565.139221,1094.412598 565.008667,1094.672852 564.885925,1095.486084 
	C564.836670,1095.647339 564.787476,1095.808472 564.180908,1096.048828 
	C564.126343,1096.701050 564.071716,1097.353394 563.934021,1098.669067 
	C563.889771,1099.110474 563.845459,1099.552002 563.411255,1100.236206 
	C563.158875,1100.444946 563.027039,1100.712891 562.918579,1101.512573 
	C562.918579,1101.512573 562.769470,1101.971191 562.102966,1102.116699 
	C561.136902,1104.378052 560.170776,1106.639526 559.204651,1108.900879 
	C559.643738,1109.061035 560.082825,1109.221191 560.521912,1109.381226 
	C560.693420,1108.887329 560.864929,1108.393311 561.856140,1108.010010 
	C563.231018,1108.063354 564.605896,1108.116699 566.095032,1108.780396 
	C567.736389,1108.575439 569.377747,1108.370605 571.656555,1108.031250 
z"/>
<path fill="#FAFAFA" opacity="1.000000" stroke="none" 
	d="
M1055.969482,1075.920166 
	C1062.233887,1075.621460 1068.496338,1075.163818 1074.763184,1075.092285 
	C1077.826904,1075.057373 1080.898682,1075.741455 1083.727295,1076.781250 
	C1083.112061,1080.155640 1081.776001,1081.245239 1078.871704,1081.078735 
	C1074.117920,1080.806152 1069.334961,1080.948364 1064.570190,1081.100464 
	C1064.059814,1081.116577 1063.588379,1082.357788 1063.098877,1083.030884 
	C1063.098877,1087.838501 1063.098877,1092.646118 1063.098877,1098.016846 
	C1067.806519,1098.016846 1072.411011,1098.014771 1077.015381,1098.017456 
	C1083.167847,1098.020874 1083.167847,1098.022461 1082.772461,1105.008301 
	C1077.682739,1105.008301 1072.553101,1105.139160 1067.434448,1104.959473 
	C1064.332642,1104.850708 1062.770020,1105.663330 1062.940430,1109.118774 
	C1063.160400,1113.578491 1062.994019,1118.057251 1062.994019,1122.904541 
	C1070.340088,1122.904541 1077.426758,1122.904541 1084.453613,1122.904541 
	C1085.419189,1129.963745 1085.419189,1129.979492 1078.867310,1129.960571 
	C1071.370117,1129.938965 1063.872925,1129.885620 1056.448242,1129.175537 
	C1056.672607,1127.866577 1056.956055,1127.228394 1056.957275,1126.589722 
	C1056.986328,1111.450195 1057.004761,1096.310425 1056.946655,1081.171143 
	C1056.942627,1080.109497 1056.330811,1079.050171 1056.001709,1077.645020 
	C1055.990967,1076.840210 1055.980225,1076.380249 1055.969482,1075.920166 
z"/>
<path fill="#F5F0F1" opacity="1.000000" stroke="none" 
	d="
M724.023376,1098.997803 
	C720.066162,1091.054321 716.145996,1083.495483 712.108215,1075.709839 
	C718.268372,1074.082153 721.208435,1075.602173 723.257568,1080.536011 
	C726.009460,1087.161865 729.698730,1093.398438 733.185730,1100.192017 
	C736.969666,1092.494263 740.425781,1085.250977 744.084106,1078.111206 
	C745.887878,1074.590698 747.165466,1074.383667 752.825867,1076.089111 
	C749.994202,1081.789917 747.605042,1087.663940 744.319824,1092.984497 
	C738.169067,1102.946045 735.607483,1113.534058 736.973877,1125.124512 
	C737.336853,1128.203613 736.712646,1130.246582 732.804382,1130.041138 
	C730.043091,1129.896118 728.862183,1129.040039 729.004395,1126.226685 
	C729.146851,1123.407471 728.733032,1120.536865 729.088379,1117.756104 
	C729.967651,1110.876465 727.674255,1104.974854 724.023376,1098.997803 
z"/>
<path fill="#F4F0F1" opacity="1.000000" stroke="none" 
	d="
M610.084290,1085.330322 
	C609.923340,1083.264526 609.534302,1081.636475 609.657654,1080.048462 
	C609.809753,1078.090454 608.237122,1075.061279 612.324036,1075.046387 
	C615.446960,1075.035034 618.144470,1074.638794 618.047485,1079.466797 
	C617.760437,1093.760742 617.944763,1108.064087 617.944763,1123.044067 
	C624.535278,1123.044067 630.952942,1123.184692 637.359558,1122.979004 
	C640.163513,1122.889038 641.902710,1123.774902 641.886230,1126.557495 
	C641.869202,1129.435425 639.942017,1130.062744 637.227417,1130.013306 
	C628.289551,1129.850464 619.346924,1129.952026 610.083496,1129.952026 
	C610.083496,1114.984253 610.083496,1100.385010 610.084290,1085.330322 
z"/>
<path fill="#FEFEFE" opacity="1.000000" stroke="none" 
	d="
M1005.054565,1083.019165 
	C1005.015320,1087.366943 1004.976074,1091.714722 1004.693726,1096.756592 
	C1003.656128,1100.747803 1006.176025,1099.930298 1007.741943,1099.957153 
	C1012.930481,1100.046021 1018.121521,1099.990723 1023.311584,1099.990723 
	C1023.452271,1100.738892 1023.592957,1101.486938 1023.733643,1102.235107 
	C1022.351868,1102.814087 1020.991882,1103.820312 1019.584229,1103.892334 
	C1015.266235,1104.112793 1010.927185,1103.903442 1006.604004,1104.066406 
	C1006.063721,1104.086914 1005.569824,1105.338257 1005.054443,1106.019287 
	C1005.054504,1111.458374 1005.054504,1116.897339 1005.054504,1123.066162 
	C1011.351685,1123.066162 1017.703857,1123.066162 1024.566895,1123.498657 
	C1025.662231,1125.386475 1026.246704,1126.841797 1026.831177,1128.296997 
	C1025.276245,1128.852173 1023.731384,1129.851318 1022.164673,1129.886841 
	C1014.760925,1130.054688 1007.351196,1129.958862 999.474121,1129.436646 
	C999.004639,1111.538452 999.004639,1094.160645 999.004639,1076.988525 
	C1007.226379,1076.988525 1014.366028,1076.903198 1021.499451,1077.076294 
	C1022.630798,1077.103638 1023.733887,1078.295776 1024.849976,1078.949463 
	C1023.760315,1079.624268 1022.694519,1080.831299 1021.576660,1080.881470 
	C1016.755066,1081.098267 1011.915344,1080.894287 1007.090271,1081.068604 
	C1006.389099,1081.093872 1005.732056,1082.338623 1005.054565,1083.019165 
M1002.482910,1081.590576 
	C1002.482910,1081.590576 1002.417542,1081.480347 1002.482910,1081.590576 
z"/>
<path fill="#F9F5F6" opacity="1.000000" stroke="none" 
	d="
M678.684448,1124.365112 
	C679.547058,1128.455444 678.429688,1130.209351 674.204285,1130.042236 
	C666.567078,1129.740112 658.906189,1129.820068 651.261963,1130.010864 
	C647.955872,1130.093262 646.940613,1128.911865 646.967102,1125.681396 
	C647.093933,1110.218018 647.073364,1094.752808 646.996155,1079.288818 
	C646.982178,1076.491577 647.563110,1075.023682 650.817627,1074.985107 
	C654.230774,1074.944824 655.018799,1076.345703 654.993408,1079.457275 
	C654.876709,1093.749878 654.942078,1108.043823 654.942078,1123.044678 
	C661.136963,1123.044678 667.210815,1122.976196 673.281311,1123.088501 
	C675.004272,1123.120239 676.717590,1123.679077 678.684448,1124.365112 
z"/>
<path fill="#ECECEC" opacity="1.000000" stroke="none" 
	d="
M1005.519653,1083.007324 
	C1005.732056,1082.338623 1006.389099,1081.093872 1007.090271,1081.068604 
	C1011.915344,1080.894287 1016.755066,1081.098267 1021.576660,1080.881470 
	C1022.694519,1080.831299 1023.760315,1079.624268 1024.849976,1078.949463 
	C1023.733887,1078.295776 1022.630798,1077.103638 1021.499451,1077.076294 
	C1014.366028,1076.903198 1007.226379,1076.988525 999.004639,1076.988525 
	C999.004639,1094.160645 999.004639,1111.538452 999.010193,1129.374268 
	C998.333252,1128.353638 997.071350,1126.880615 997.057617,1125.395874 
	C996.913757,1109.915283 997.029053,1094.432495 996.922302,1078.951294 
	C996.900879,1075.844360 998.099548,1074.898804 1001.063660,1074.954590 
	C1008.385803,1075.092651 1015.714661,1075.100830 1023.036072,1074.943115 
	C1026.119019,1074.876831 1027.078979,1076.070435 1027.091064,1079.047363 
	C1027.103394,1082.108765 1025.962646,1083.161987 1022.958374,1083.071533 
	C1017.304871,1082.901367 1011.643066,1083.005371 1005.519653,1083.007324 
z"/>
<path fill="#DCDCDC" opacity="1.000000" stroke="none" 
	d="
M1056.001709,1077.989746 
	C1056.330811,1079.050171 1056.942627,1080.109497 1056.946655,1081.171143 
	C1057.004761,1096.310425 1056.986328,1111.450195 1056.957275,1126.589722 
	C1056.956055,1127.228394 1056.672607,1127.866577 1056.215820,1128.803711 
	C1055.911011,1129.102417 1055.974487,1129.084351 1055.883545,1128.883545 
	C1055.682129,1128.352539 1055.461182,1128.133667 1055.130005,1128.026245 
	C1055.074707,1111.653931 1055.019531,1095.281494 1055.265869,1078.458496 
	C1055.567261,1078.007812 1056.001709,1077.989746 1056.001709,1077.989746 
z"/>
<path fill="#ECECEC" opacity="1.000000" stroke="none" 
	d="
M1005.519348,1106.022461 
	C1005.569824,1105.338257 1006.063721,1104.086914 1006.604004,1104.066406 
	C1010.927185,1103.903442 1015.266235,1104.112793 1019.584229,1103.892334 
	C1020.991882,1103.820312 1022.351868,1102.814087 1023.733643,1102.235107 
	C1023.592957,1101.486938 1023.452271,1100.738892 1023.311584,1099.990723 
	C1018.121521,1099.990723 1012.930481,1100.046021 1007.741943,1099.957153 
	C1006.176025,1099.930298 1003.656128,1100.747803 1004.746704,1097.217529 
	C1008.918884,1097.315674 1012.861816,1097.316772 1016.649719,1098.083618 
	C1019.661377,1098.693237 1025.082153,1095.032227 1025.009888,1102.128052 
	C1024.941406,1108.855469 1019.806763,1105.460938 1016.904419,1105.898926 
	C1013.339172,1106.436768 1009.630737,1106.026123 1005.519348,1106.022461 
z"/>
<path fill="#D2D2D2" opacity="1.000000" stroke="none" 
	d="
M930.544983,1075.575439 
	C930.612122,1092.467651 930.613770,1109.454834 930.084717,1126.711914 
	C929.554016,1126.981812 929.109985,1127.023682 929.109985,1127.023682 
	C929.051758,1126.562500 928.993530,1126.101440 929.251160,1125.174683 
	C929.414551,1124.150391 929.262024,1123.591797 929.109497,1123.033081 
	C929.050903,1120.965332 928.992249,1118.897583 929.310303,1116.099854 
	C929.494995,1110.258057 929.303101,1105.145996 929.111145,1100.034058 
	C929.053345,1092.652466 928.995544,1085.270874 929.285522,1077.276733 
	C929.927551,1076.408936 930.221802,1076.153687 930.516113,1075.898438 
	C930.516113,1075.898438 930.479492,1075.670532 930.544983,1075.575439 
z"/>
<path fill="#DADADA" opacity="1.000000" stroke="none" 
	d="
M1063.560913,1083.014526 
	C1063.588379,1082.357788 1064.059814,1081.116577 1064.570190,1081.100464 
	C1069.334961,1080.948364 1074.117920,1080.806152 1078.871704,1081.078735 
	C1081.776001,1081.245239 1083.112061,1080.155640 1083.791260,1077.216187 
	C1085.846069,1082.076294 1085.355957,1082.943726 1080.521606,1082.984985 
	C1075.022339,1083.031860 1069.522583,1082.997314 1063.560913,1083.014526 
z"/>
<path fill="#FBFBFB" opacity="1.000000" stroke="none" 
	d="
M929.059387,1100.496094 
	C929.303101,1105.145996 929.494995,1110.258057 929.398682,1115.664307 
	C929.076172,1110.958374 929.041870,1105.958252 929.059387,1100.496094 
z"/>
<path fill="#ECECEC" opacity="1.000000" stroke="none" 
	d="
M1026.918213,1128.017090 
	C1026.246704,1126.841797 1025.662231,1125.386475 1025.030273,1123.563843 
	C1029.084351,1123.183350 1026.055908,1126.346191 1026.918213,1128.017090 
z"/>
<path fill="#F6F6F6" opacity="1.000000" stroke="none" 
	d="
M1056.001709,1077.645020 
	C1056.001709,1077.989746 1055.567261,1078.007812 1055.350220,1077.995361 
	C1055.207153,1077.366089 1055.281128,1076.749023 1055.662354,1076.026123 
	C1055.980225,1076.380249 1055.990967,1076.840210 1056.001709,1077.645020 
z"/>
<path fill="#FBFBFB" opacity="1.000000" stroke="none" 
	d="
M929.058228,1123.352905 
	C929.262024,1123.591797 929.414551,1124.150391 929.338745,1124.834473 
	C929.075989,1124.530762 929.041443,1124.101807 929.058228,1123.352905 
z"/>
<path fill="#F6F6F6" opacity="1.000000" stroke="none" 
	d="
M1055.101318,1128.292725 
	C1055.461182,1128.133667 1055.682129,1128.352539 1055.867188,1128.912231 
	C1055.652100,1128.947510 1055.362427,1128.753296 1055.101318,1128.292725 
z"/>
<path fill="#FBFBFB" opacity="1.000000" stroke="none" 
	d="
M929.089844,1127.293213 
	C929.109985,1127.023682 929.554016,1126.981812 929.776489,1126.996826 
	C929.998169,1127.184570 929.997314,1127.357544 929.989624,1127.790161 
	C929.678406,1127.887451 929.374084,1127.725098 929.089844,1127.293213 
z"/>
<path fill="#FBFBFB" opacity="1.000000" stroke="none" 
	d="
M930.163391,1075.886719 
	C930.221802,1076.153687 929.927551,1076.408936 929.374817,1076.813110 
	C929.347778,1076.599731 929.579224,1076.237427 930.163391,1075.886719 
z"/>
<path fill="#ECE4E6" opacity="1.000000" stroke="none" 
	d="
M637.998657,1025.062744 
	C601.168579,1025.047119 564.838135,1025.024658 528.507690,1025.030396 
	C519.615112,1025.031860 518.047607,1026.575806 515.934814,1035.140503 
	C509.726074,1060.309204 503.260803,1085.414551 497.046722,1110.582031 
	C495.682404,1116.107666 491.806549,1116.825806 487.182098,1116.820557 
	C462.350861,1116.791992 437.519623,1116.773438 412.688385,1116.766724 
	C376.191772,1116.756836 339.695068,1116.720459 303.198639,1116.796021 
	C297.095642,1116.808594 292.496796,1114.481079 288.367859,1110.003174 
	C276.853119,1097.515625 265.258545,1085.084961 253.252838,1073.074341 
	C247.352448,1067.171631 246.025513,1061.042603 248.102219,1053.169678 
	C255.946182,1023.432739 263.475983,993.612793 271.099091,963.817688 
	C283.586151,915.011902 296.056519,866.201965 308.527557,817.392090 
	C310.176178,810.939636 309.181396,809.098938 303.523499,809.027222 
	C269.616180,808.597839 241.955017,795.155396 220.370804,769.146118 
	C202.837570,748.018311 184.673843,727.351013 168.231644,705.399414 
	C153.994019,686.391113 149.223938,663.702881 152.947556,640.415161 
	C156.717590,616.837219 162.303696,593.503052 168.039200,570.295593 
	C179.966232,522.035767 192.550201,473.938538 204.801987,425.758667 
	C213.942093,389.815399 222.981476,353.846497 232.071915,317.890594 
	C236.432663,300.642273 240.724152,283.375793 245.213608,266.160980 
	C247.286316,258.213165 248.899734,256.928741 257.036255,256.870941 
	C275.532349,256.739471 294.029999,256.828033 312.527039,256.829865 
	C365.513519,256.835083 418.499969,256.833557 471.486450,256.852936 
	C487.141693,256.858643 502.807343,256.597076 518.447998,257.094757 
	C526.923157,257.364410 532.522705,254.113739 537.051331,247.170670 
	C555.046570,219.581345 578.345947,197.691696 607.765503,182.548828 
	C629.305237,171.461914 652.257202,165.600250 676.404480,165.429703 
	C722.065369,165.107224 767.730591,165.214691 813.393127,165.377808 
	C843.179871,165.484207 870.675720,173.583191 891.215698,195.750885 
	C912.901672,219.155380 933.414062,243.817154 952.616577,269.302948 
	C970.159546,292.586090 972.978271,320.204285 966.399841,348.010498 
	C953.923523,400.746521 940.387939,453.233307 927.137634,505.784576 
	C911.117798,569.319763 894.965210,632.821655 878.816650,696.324402 
	C867.057556,742.566162 855.260437,788.798401 843.384338,835.010254 
	C837.426331,858.193787 833.032227,881.973877 824.832764,904.348877 
	C803.450928,962.696289 762.568176,1001.732605 702.897827,1020.229736 
	C687.373108,1025.042236 671.247498,1026.207520 654.991516,1025.330933 
	C649.505005,1025.035034 643.996643,1025.142944 637.998657,1025.062744 
M685.050781,1014.906433 
	C686.337952,1014.587219 687.611511,1014.191345 688.914246,1013.959839 
	C723.948120,1007.735657 752.869812,989.937378 777.200684,964.974609 
	C799.317444,942.283325 814.570801,915.412231 822.218018,884.102417 
	C835.546387,829.532043 850.003052,775.237976 863.867737,720.797729 
	C875.452820,675.308533 886.805481,629.760254 898.374939,584.267090 
	C910.100220,538.160950 922.090942,492.122040 933.726013,445.993317 
	C941.751221,414.176514 949.558594,382.301788 957.115784,350.370728 
	C964.692200,318.358276 959.088135,288.973236 937.930725,263.285065 
	C923.114319,245.295715 908.062744,227.491898 892.786377,209.891495 
	C873.879761,188.108566 849.965332,175.518906 820.985474,175.081573 
	C774.499023,174.380020 727.993042,175.053741 681.502380,174.523392 
	C659.282471,174.269897 638.359497,178.909180 618.213379,187.740402 
	C584.912537,202.338089 560.225708,226.621201 541.215271,257.079742 
	C537.297546,263.356689 532.266296,266.334198 524.804077,266.218536 
	C506.142517,265.929199 487.475037,266.033295 468.810089,265.946198 
	C457.993561,265.895721 457.993683,265.866699 454.250580,276.391052 
	C446.660950,264.280609 434.918884,265.317749 423.320557,265.658844 
	C415.326233,265.893982 407.322968,265.878326 399.323669,265.881683 
	C353.662933,265.900848 308.002136,265.857361 262.341522,265.927948 
	C254.978683,265.939331 253.949814,266.971619 252.143463,274.110229 
	C247.020187,294.357056 241.925781,314.611206 236.786148,334.853882 
	C226.051788,377.131470 215.263733,419.395386 204.558151,461.680237 
	C195.280594,498.324646 185.972260,534.961975 176.898682,571.657104 
	C171.567261,593.218262 165.716400,614.717163 161.835480,636.552673 
	C157.777863,659.382385 161.550232,681.751160 175.570450,700.651550 
	C190.019455,720.130127 205.833221,738.635742 221.693710,757.011230 
	C229.577484,766.145081 238.141113,775.046387 247.737808,782.272461 
	C266.668274,796.526794 288.855957,800.939880 312.267822,800.167358 
	C320.697113,799.889221 321.622986,801.265137 319.525574,809.401062 
	C313.359009,833.321594 307.137573,857.228210 301.036041,881.165344 
	C286.575409,937.895630 272.312439,994.677063 257.582397,1051.337158 
	C255.537003,1059.204834 257.326843,1064.729004 262.716919,1070.180542 
	C272.432281,1080.006714 282.127838,1089.881104 291.283875,1100.220459 
	C296.164398,1105.731812 301.600464,1107.770996 308.771606,1107.711060 
	C342.933716,1107.425537 377.098450,1107.405640 411.262299,1107.389282 
	C434.093201,1107.378296 456.924164,1107.591797 479.755035,1107.580322 
	C488.213898,1107.576172 489.097321,1106.669434 491.064240,1098.849365 
	C497.292175,1074.088745 503.505310,1049.324341 509.859741,1024.596069 
	C511.904999,1016.636902 513.046082,1015.952637 521.271057,1015.937561 
	C546.602844,1015.891113 571.935181,1015.948547 597.266296,1015.796875 
	C626.236511,1015.623474 655.205627,1015.268921 685.050781,1014.906433 
z"/>
<path fill="#000000" opacity="1.000000" stroke="none" 
	d="
M1135.069092,1083.556274 
	C1141.583740,1087.541748 1145.492554,1098.719604 1143.850464,1106.581787 
	C1142.445190,1113.309570 1140.931641,1119.884888 1133.390747,1122.032715 
	C1129.589600,1123.115234 1125.427490,1122.931152 1121.169189,1123.345093 
	C1121.169189,1109.211792 1121.169189,1095.805176 1121.169189,1081.459717 
	C1125.885376,1082.081421 1130.342651,1082.669067 1135.069092,1083.556274 
z"/>
<path fill="#000000" opacity="1.000000" stroke="none" 
	d="
M783.579224,1089.883057 
	C785.503906,1085.164551 788.114380,1082.359009 793.325623,1081.835693 
	C799.705811,1081.194824 803.756836,1084.508301 805.624695,1089.480591 
	C809.113342,1098.767334 809.962158,1108.417358 805.043823,1117.741943 
	C802.995117,1121.626099 799.854004,1123.000488 795.459473,1123.121338 
	C790.741333,1123.251099 787.224609,1122.269165 784.921265,1117.799438 
	C780.276001,1108.784546 781.458008,1099.513550 783.579224,1089.883057 
z"/>
<path fill="#000000" opacity="1.000000" stroke="none" 
	d="
M564.738220,1095.969727 
	C564.787476,1095.808472 564.836670,1095.647339 565.212036,1095.203613 
	C565.618774,1094.611938 565.699341,1094.302734 565.779968,1093.993530 
	C565.834656,1093.553955 565.889343,1093.114502 566.278320,1092.284058 
	C567.070557,1091.606812 567.528564,1091.320312 567.986572,1091.033813 
	C568.347168,1092.764771 568.707764,1094.495850 569.075073,1096.875732 
	C569.384644,1097.691528 569.687500,1097.858398 569.990417,1098.025391 
	C570.017029,1098.465332 570.043701,1098.905273 570.071716,1099.936035 
	C570.373108,1100.706665 570.673096,1100.886597 570.973145,1101.066528 
	C570.973145,1101.066528 571.056885,1101.528809 571.036194,1102.114990 
	C571.666382,1104.158325 572.317200,1105.615601 572.968079,1107.072754 
	C572.968079,1107.072754 573.012756,1107.517212 572.998047,1107.752686 
	C572.983337,1107.988281 572.951172,1107.908447 572.951172,1107.908447 
	C572.519653,1107.949341 572.088074,1107.990234 570.923706,1108.013428 
	C568.787476,1108.053833 567.384155,1108.111938 565.980774,1108.170044 
	C564.605896,1108.116699 563.231018,1108.063354 561.560181,1107.612061 
	C561.765991,1105.466553 562.267700,1103.718872 562.769470,1101.971191 
	C562.769470,1101.971191 562.918579,1101.512573 563.236450,1101.222290 
	C563.636658,1100.619141 563.718933,1100.306274 563.801208,1099.993408 
	C563.845459,1099.552002 563.889771,1099.110474 564.287048,1098.242676 
	C564.672791,1097.200806 564.705505,1096.585327 564.738220,1095.969727 
z"/>
<path fill="#E0D6DA" opacity="1.000000" stroke="none" 
	d="
M568.000916,1090.636963 
	C567.528564,1091.320312 567.070557,1091.606812 566.333923,1091.955200 
	C566.055298,1090.140747 566.055298,1088.264282 566.055298,1086.387817 
	C566.552307,1086.390503 567.049255,1086.393188 567.546265,1086.395874 
	C567.702576,1087.677246 567.858948,1088.958618 568.000916,1090.636963 
z"/>
<path fill="#E0D6DA" opacity="1.000000" stroke="none" 
	d="
M562.436218,1102.043945 
	C562.267700,1103.718872 561.765991,1105.466553 561.150269,1107.556885 
	C560.864929,1108.393311 560.693420,1108.887329 560.521912,1109.381226 
	C560.082825,1109.221191 559.643738,1109.061035 559.204651,1108.900879 
	C560.170776,1106.639526 561.136902,1104.378052 562.436218,1102.043945 
z"/>
<path fill="#E0D6DA" opacity="1.000000" stroke="none" 
	d="
M566.037903,1108.475220 
	C567.384155,1108.111938 568.787476,1108.053833 570.604980,1108.080811 
	C569.377747,1108.370605 567.736389,1108.575439 566.037903,1108.475220 
z"/>
<path fill="#E0D6DA" opacity="1.000000" stroke="none" 
	d="
M572.988342,1106.681763 
	C572.317200,1105.615601 571.666382,1104.158325 571.104858,1102.339600 
	C571.799072,1103.415649 572.403870,1104.853271 572.988342,1106.681763 
z"/>
<path fill="#E0D6DA" opacity="1.000000" stroke="none" 
	d="
M564.459595,1096.009277 
	C564.705505,1096.585327 564.672791,1097.200806 564.328613,1097.911011 
	C564.071716,1097.353394 564.126343,1096.701050 564.459595,1096.009277 
z"/>
<path fill="#E0D6DA" opacity="1.000000" stroke="none" 
	d="
M572.944519,1107.969604 
	C573.377563,1108.193115 573.849365,1108.435425 574.321167,1108.677734 
	C574.137817,1108.884033 573.954468,1109.090454 573.771118,1109.296753 
	C573.513245,1109.009888 573.255310,1108.723022 572.974304,1108.172363 
	C572.951172,1107.908447 572.983337,1107.988281 572.944519,1107.969604 
z"/>
<path fill="#E0D6DA" opacity="1.000000" stroke="none" 
	d="
M570.923340,1100.840088 
	C570.673096,1100.886597 570.373108,1100.706665 570.137207,1100.260498 
	C570.496216,1100.123779 570.720215,1100.330200 570.923340,1100.840088 
z"/>
<path fill="#E0D6DA" opacity="1.000000" stroke="none" 
	d="
M563.606201,1100.114746 
	C563.718933,1100.306274 563.636658,1100.619141 563.285095,1100.986084 
	C563.027039,1100.712891 563.158875,1100.444946 563.606201,1100.114746 
z"/>
<path fill="#E0D6DA" opacity="1.000000" stroke="none" 
	d="
M569.938110,1097.804077 
	C569.687500,1097.858398 569.384644,1097.691528 569.146667,1097.259033 
	C569.506409,1097.109985 569.731140,1097.306274 569.938110,1097.804077 
z"/>
<path fill="#E0D6DA" opacity="1.000000" stroke="none" 
	d="
M565.584351,1094.102783 
	C565.699341,1094.302734 565.618774,1094.611938 565.267639,1094.957031 
	C565.008667,1094.672852 565.139221,1094.412598 565.584351,1094.102783 
z"/>
<path fill="#ECECEC" opacity="1.000000" stroke="none" 
	d="
M1002.450195,1081.535400 
	C1002.417542,1081.480347 1002.482910,1081.590576 1002.450195,1081.535400 
z"/>
<path fill="#0D1235" opacity="1.000000" stroke="none" 
	d="
M684.613037,1014.949768 
	C655.205627,1015.268921 626.236511,1015.623474 597.266296,1015.796875 
	C571.935181,1015.948547 546.602844,1015.891113 521.271057,1015.937561 
	C513.046082,1015.952637 511.904999,1016.636902 509.859741,1024.596069 
	C503.505310,1049.324341 497.292175,1074.088745 491.064240,1098.849365 
	C489.097321,1106.669434 488.213898,1107.576172 479.755035,1107.580322 
	C456.924164,1107.591797 434.093201,1107.378296 411.262299,1107.389282 
	C377.098450,1107.405640 342.933716,1107.425537 308.771606,1107.711060 
	C301.600464,1107.770996 296.164398,1105.731812 291.283875,1100.220459 
	C282.127838,1089.881104 272.432281,1080.006714 262.716919,1070.180542 
	C257.326843,1064.729004 255.537003,1059.204834 257.582397,1051.337158 
	C272.312439,994.677063 286.575409,937.895630 301.036041,881.165344 
	C307.137573,857.228210 313.359009,833.321594 319.525574,809.401062 
	C321.622986,801.265137 320.697113,799.889221 312.267822,800.167358 
	C288.855957,800.939880 266.668274,796.526794 247.737808,782.272461 
	C238.141113,775.046387 229.577484,766.145081 221.693710,757.011230 
	C205.833221,738.635742 190.019455,720.130127 175.570450,700.651550 
	C161.550232,681.751160 157.777863,659.382385 161.835480,636.552673 
	C165.716400,614.717163 171.567261,593.218262 176.898682,571.657104 
	C185.972260,534.961975 195.280594,498.324646 204.558151,461.680237 
	C215.263733,419.395386 226.051788,377.131470 236.786148,334.853882 
	C241.925781,314.611206 247.020187,294.357056 252.143463,274.110229 
	C253.949814,266.971619 254.978683,265.939331 262.341522,265.927948 
	C308.002136,265.857361 353.662933,265.900848 399.323669,265.881683 
	C407.322968,265.878326 415.326233,265.893982 423.320557,265.658844 
	C434.918884,265.317749 446.660950,264.280609 454.250580,276.391052 
	C457.993683,265.866699 457.993561,265.895721 468.810089,265.946198 
	C487.475037,266.033295 506.142517,265.929199 524.804077,266.218536 
	C532.266296,266.334198 537.297546,263.356689 541.215271,257.079742 
	C560.225708,226.621201 584.912537,202.338089 618.213379,187.740402 
	C638.359497,178.909180 659.282471,174.269897 681.502380,174.523392 
	C727.993042,175.053741 774.499023,174.380020 820.985474,175.081573 
	C849.965332,175.518906 873.879761,188.108566 892.786377,209.891495 
	C908.062744,227.491898 923.114319,245.295715 937.930725,263.285065 
	C959.088135,288.973236 964.692200,318.358276 957.115784,350.370728 
	C949.558594,382.301788 941.751221,414.176514 933.726013,445.993317 
	C922.090942,492.122040 910.100220,538.160950 898.374939,584.267090 
	C886.805481,629.760254 875.452820,675.308533 863.867737,720.797729 
	C850.003052,775.237976 835.546387,829.532043 822.218018,884.102417 
	C814.570801,915.412231 799.317444,942.283325 777.200684,964.974609 
	C752.869812,989.937378 723.948120,1007.735657 688.914246,1013.959839 
	C687.611511,1014.191345 686.337952,1014.587219 684.613037,1014.949768 
M640.500000,812.145996 
	C637.668030,812.148438 634.836060,812.152527 632.004089,812.153137 
	C593.843445,812.160767 555.682739,812.160889 517.522095,812.181152 
	C509.945129,812.185120 508.487396,813.369202 506.706909,820.338257 
	C496.497620,860.298706 486.269653,900.254333 476.032745,940.207764 
	C474.505005,946.170410 475.273254,947.271790 481.625000,947.273376 
	C528.950867,947.285156 576.281799,947.631226 623.598938,946.980835 
	C635.399902,946.818665 647.520935,944.623596 658.859253,941.235535 
	C684.896179,933.455322 706.097656,917.711060 723.817566,897.374023 
	C736.687500,882.603271 747.866089,866.642151 753.130859,847.394043 
	C759.266663,824.961487 765.189087,802.469299 771.031311,779.958069 
	C776.210632,760.001160 781.120544,739.974426 786.208252,719.993530 
	C793.797119,690.189697 801.478638,660.409485 809.037964,630.598206 
	C812.506836,616.918152 815.643799,603.153320 819.168274,589.488037 
	C827.016785,559.057617 835.120789,528.692932 842.925781,498.251495 
	C854.119751,454.592438 865.238586,410.913574 876.194763,367.194366 
	C882.134460,343.492523 888.323242,319.822968 893.212769,295.896301 
	C898.551514,269.771637 893.157593,245.640610 876.080078,224.607651 
	C864.090332,209.840912 848.801941,200.581680 829.784790,199.026169 
	C815.047546,197.820755 800.191040,197.829514 785.385315,197.755615 
	C752.225403,197.590118 719.058411,198.066177 685.906189,197.537445 
	C672.639343,197.325897 659.501160,197.473373 646.914490,201.560394 
	C593.409119,218.934036 558.317566,254.686172 542.481506,308.684387 
	C536.262207,329.891174 531.510803,351.528229 526.079346,372.966400 
	C520.319824,395.699768 514.600159,418.443420 508.764648,441.157288 
	C502.473541,465.644531 496.064301,490.101379 489.714508,514.573608 
	C485.864349,529.412109 482.456604,544.337952 482.671204,559.791931 
	C483.067474,588.325684 494.171936,611.466064 518.057983,627.647156 
	C531.669800,636.868164 547.382751,638.827454 563.401001,638.836609 
	C593.062927,638.853577 622.724854,638.778564 652.386780,638.752625 
	C661.336365,638.744812 661.759338,639.474792 659.491150,647.873413 
	C656.500366,658.947937 653.820435,670.106140 650.971375,681.219238 
	C641.926086,716.501709 632.885437,751.785400 623.785767,787.053772 
	C622.471130,792.148865 623.203186,794.085632 628.235657,795.686218 
	C640.440247,799.567932 652.702454,803.268311 664.926880,807.088379 
	C668.265442,808.131714 671.552368,809.340393 674.863037,810.473145 
	C674.778870,811.027588 674.694702,811.582031 674.610535,812.136475 
	C663.573669,812.136475 652.536865,812.136475 640.500000,812.145996 
M381.500336,288.724060 
	C347.005524,288.746399 312.510681,288.749817 278.015930,288.807281 
	C271.214508,288.818604 270.507416,289.638123 268.912292,296.061676 
	C263.311981,318.614624 257.640961,341.150299 251.921265,363.673309 
	C241.587662,404.365082 231.198364,445.042664 220.834717,485.726807 
	C209.691772,529.470093 198.430862,573.183899 187.468338,616.972412 
	C182.961182,634.975708 179.870544,653.144348 185.029099,671.673828 
	C192.564621,698.741272 212.319214,726.315918 248.368240,730.026672 
	C267.033813,731.947937 285.953369,731.617249 304.763824,731.851807 
	C321.755127,732.063660 338.754730,731.710205 355.749268,731.494446 
	C360.266449,731.437073 361.324371,732.687683 360.092743,737.427124 
	C350.833679,773.057617 341.948212,808.785034 332.867584,844.462158 
	C316.986328,906.858582 301.051117,969.241211 285.131927,1031.627930 
	C283.587372,1037.681274 284.280762,1038.750488 290.589935,1038.759766 
	C334.409332,1038.824219 378.228912,1038.787720 422.048157,1038.901245 
	C427.337646,1038.915039 429.737549,1036.579468 430.893188,1031.543701 
	C434.865082,1014.236023 438.983673,996.957764 443.359650,979.747986 
	C454.892395,934.392273 466.579163,889.075745 478.225311,843.748901 
	C486.364105,812.072876 494.541229,780.406616 502.693512,748.734009 
	C510.015137,720.288635 517.285095,691.829773 524.681824,663.403992 
	C525.946655,658.543091 524.625549,655.964844 519.840820,653.756287 
	C497.742462,643.555603 481.173737,627.599976 470.965088,605.270935 
	C459.325928,579.812927 458.694427,553.452087 464.818115,526.707336 
	C468.854248,509.079803 473.707428,491.639679 478.177887,474.111328 
	C486.954681,439.698303 495.710693,405.279938 504.492615,370.868164 
	C511.056274,345.148407 517.613953,319.426971 524.270020,293.731049 
	C525.046997,290.731415 524.946289,288.696991 521.252991,288.702362 
	C507.757202,288.722046 494.261444,288.794159 480.765686,288.846436 
	C476.525116,288.862854 473.906433,291.078705 472.714539,295.003723 
	C471.461060,299.131378 470.266602,303.281830 469.210480,307.463776 
	C459.052429,347.685852 448.975800,387.928558 438.784149,428.142120 
	C425.410187,480.912140 411.936707,533.656982 398.548065,586.423279 
	C396.238068,595.527283 395.169800,596.431152 385.568878,596.406189 
	C356.405396,596.330322 327.241882,596.268921 298.078400,596.202881 
	C296.220886,596.198669 294.363342,596.202332 292.505829,596.202332 
	C293.114502,594.877014 293.763733,594.409241 294.488373,594.165405 
	C306.908691,589.985962 319.271271,585.616455 331.792023,581.761169 
	C338.890900,579.575378 343.709290,575.862244 345.546936,568.321167 
	C349.868866,550.585693 354.529266,532.932922 358.999359,515.233276 
	C370.744354,468.728271 382.439484,422.210693 394.196960,375.708832 
	C400.989105,348.845428 407.881165,322.007355 414.686096,295.147186 
	C416.067261,289.695435 415.532410,288.961121 409.996124,288.879486 
	C400.832092,288.744263 391.665741,288.767883 381.500336,288.724060 
M577.676086,758.011536 
	C575.006653,768.351318 572.337158,778.691162 569.559814,789.448792 
	C578.735413,789.448792 587.054993,789.287659 595.363892,789.515198 
	C599.666199,789.632996 601.694275,787.752380 602.693481,783.776428 
	C608.511597,760.626099 614.364380,737.483765 620.380249,714.384338 
	C621.489136,710.126343 620.116638,708.445129 615.998169,708.352966 
	C608.842041,708.192749 601.680603,708.138367 594.532776,707.798401 
	C591.095276,707.634827 589.720398,709.603638 589.033203,712.327759 
	C585.262512,727.276367 581.581055,742.247559 577.676086,758.011536 
z"/>
<path fill="#F23D49" opacity="1.000000" stroke="none" 
	d="
M641.000000,812.141235 
	C652.536865,812.136475 663.573669,812.136475 674.610535,812.136475 
	C674.694702,811.582031 674.778870,811.027588 674.863037,810.473145 
	C671.552368,809.340393 668.265442,808.131714 664.926880,807.088379 
	C652.702454,803.268311 640.440247,799.567932 628.235657,795.686218 
	C623.203186,794.085632 622.471130,792.148865 623.785767,787.053772 
	C632.885437,751.785400 641.926086,716.501709 650.971375,681.219238 
	C653.820435,670.106140 656.500366,658.947937 659.491150,647.873413 
	C661.759338,639.474792 661.336365,638.744812 652.386780,638.752625 
	C622.724854,638.778564 593.062927,638.853577 563.401001,638.836609 
	C547.382751,638.827454 531.669800,636.868164 518.057983,627.647156 
	C494.171936,611.466064 483.067474,588.325684 482.671204,559.791931 
	C482.456604,544.337952 485.864349,529.412109 489.714508,514.573608 
	C496.064301,490.101379 502.473541,465.644531 508.764648,441.157288 
	C514.600159,418.443420 520.319824,395.699768 526.079346,372.966400 
	C531.510803,351.528229 536.262207,329.891174 542.481506,308.684387 
	C558.317566,254.686172 593.409119,218.934036 646.914490,201.560394 
	C659.501160,197.473373 672.639343,197.325897 685.906189,197.537445 
	C719.058411,198.066177 752.225403,197.590118 785.385315,197.755615 
	C800.191040,197.829514 815.047546,197.820755 829.784790,199.026169 
	C848.801941,200.581680 864.090332,209.840912 876.080078,224.607651 
	C893.157593,245.640610 898.551514,269.771637 893.212769,295.896301 
	C888.323242,319.822968 882.134460,343.492523 876.194763,367.194366 
	C865.238586,410.913574 854.119751,454.592438 842.925781,498.251495 
	C835.120789,528.692932 827.016785,559.057617 819.168274,589.488037 
	C815.643799,603.153320 812.506836,616.918152 809.037964,630.598206 
	C801.478638,660.409485 793.797119,690.189697 786.208252,719.993530 
	C781.120544,739.974426 776.210632,760.001160 771.031311,779.958069 
	C765.189087,802.469299 759.266663,824.961487 753.130859,847.394043 
	C747.866089,866.642151 736.687500,882.603271 723.817566,897.374023 
	C706.097656,917.711060 684.896179,933.455322 658.859253,941.235535 
	C647.520935,944.623596 635.399902,946.818665 623.598938,946.980835 
	C576.281799,947.631226 528.950867,947.285156 481.625000,947.273376 
	C475.273254,947.271790 474.505005,946.170410 476.032745,940.207764 
	C486.269653,900.254333 496.497620,860.298706 506.706909,820.338257 
	C508.487396,813.369202 509.945129,812.185120 517.522095,812.181152 
	C555.682739,812.160889 593.843445,812.160767 632.004089,812.153137 
	C634.836060,812.152527 637.668030,812.148438 641.000000,812.141235 
M756.292664,342.818451 
	C763.148987,340.098389 770.005249,337.378326 776.861572,334.658264 
	C776.689453,334.179810 776.517395,333.701385 776.345337,333.222931 
	C775.221191,333.086823 774.097290,332.833557 772.972961,332.831757 
	C748.982117,332.793549 724.990479,332.662109 701.000732,332.816895 
	C688.038269,332.900513 680.251953,339.010040 676.843689,351.750366 
	C672.591675,367.644836 668.718872,383.640778 664.690186,399.594910 
	C657.323425,428.769104 649.901062,457.929474 642.631104,487.127838 
	C639.960449,497.853821 645.383179,504.753662 656.499329,504.929626 
	C667.159668,505.098419 677.824707,504.950470 688.486572,505.054810 
	C693.021851,505.099182 696.218994,503.682678 697.257629,498.811584 
	C697.911743,495.744049 699.005188,492.773102 699.782898,489.728546 
	C704.844360,469.912994 709.904480,450.097015 714.904785,430.265961 
	C720.878479,406.574432 726.798096,382.869232 732.726501,359.166290 
	C734.027710,353.963898 737.006897,350.249298 742.074585,348.295807 
	C746.572937,346.561737 751.060425,344.799133 756.292664,342.818451 
z"/>
<path fill="#ECEBEC" opacity="1.000000" stroke="none" 
	d="
M382.000366,288.724304 
	C391.665741,288.767883 400.832092,288.744263 409.996124,288.879486 
	C415.532410,288.961121 416.067261,289.695435 414.686096,295.147186 
	C407.881165,322.007355 400.989105,348.845428 394.196960,375.708832 
	C382.439484,422.210693 370.744354,468.728271 358.999359,515.233276 
	C354.529266,532.932922 349.868866,550.585693 345.546936,568.321167 
	C343.709290,575.862244 338.890900,579.575378 331.792023,581.761169 
	C319.271271,585.616455 306.908691,589.985962 294.488373,594.165405 
	C293.763733,594.409241 293.114502,594.877014 292.505829,596.202332 
	C294.363342,596.202332 296.220886,596.198669 298.078400,596.202881 
	C327.241882,596.268921 356.405396,596.330322 385.568878,596.406189 
	C395.169800,596.431152 396.238068,595.527283 398.548065,586.423279 
	C411.936707,533.656982 425.410187,480.912140 438.784149,428.142120 
	C448.975800,387.928558 459.052429,347.685852 469.210480,307.463776 
	C470.266602,303.281830 471.461060,299.131378 472.714539,295.003723 
	C473.906433,291.078705 476.525116,288.862854 480.765686,288.846436 
	C494.261444,288.794159 507.757202,288.722046 521.252991,288.702362 
	C524.946289,288.696991 525.046997,290.731415 524.270020,293.731049 
	C517.613953,319.426971 511.056274,345.148407 504.492615,370.868164 
	C495.710693,405.279938 486.954681,439.698303 478.177887,474.111328 
	C473.707428,491.639679 468.854248,509.079803 464.818115,526.707336 
	C458.694427,553.452087 459.325928,579.812927 470.965088,605.270935 
	C481.173737,627.599976 497.742462,643.555603 519.840820,653.756287 
	C524.625549,655.964844 525.946655,658.543091 524.681824,663.403992 
	C517.285095,691.829773 510.015137,720.288635 502.693512,748.734009 
	C494.541229,780.406616 486.364105,812.072876 478.225311,843.748901 
	C466.579163,889.075745 454.892395,934.392273 443.359650,979.747986 
	C438.983673,996.957764 434.865082,1014.236023 430.893188,1031.543701 
	C429.737549,1036.579468 427.337646,1038.915039 422.048157,1038.901245 
	C378.228912,1038.787720 334.409332,1038.824219 290.589935,1038.759766 
	C284.280762,1038.750488 283.587372,1037.681274 285.131927,1031.627930 
	C301.051117,969.241211 316.986328,906.858582 332.867584,844.462158 
	C341.948212,808.785034 350.833679,773.057617 360.092743,737.427124 
	C361.324371,732.687683 360.266449,731.437073 355.749268,731.494446 
	C338.754730,731.710205 321.755127,732.063660 304.763824,731.851807 
	C285.953369,731.617249 267.033813,731.947937 248.368240,730.026672 
	C212.319214,726.315918 192.564621,698.741272 185.029099,671.673828 
	C179.870544,653.144348 182.961182,634.975708 187.468338,616.972412 
	C198.430862,573.183899 209.691772,529.470093 220.834717,485.726807 
	C231.198364,445.042664 241.587662,404.365082 251.921265,363.673309 
	C257.640961,341.150299 263.311981,318.614624 268.912292,296.061676 
	C270.507416,289.638123 271.214508,288.818604 278.015930,288.807281 
	C312.510681,288.749817 347.005524,288.746399 382.000366,288.724304 
z"/>
<path fill="#E7E6EB" opacity="1.000000" stroke="none" 
	d="
M577.772522,757.611206 
	C581.581055,742.247559 585.262512,727.276367 589.033203,712.327759 
	C589.720398,709.603638 591.095276,707.634827 594.532776,707.798401 
	C601.680603,708.138367 608.842041,708.192749 615.998169,708.352966 
	C620.116638,708.445129 621.489136,710.126343 620.380249,714.384338 
	C614.364380,737.483765 608.511597,760.626099 602.693481,783.776428 
	C601.694275,787.752380 599.666199,789.632996 595.363892,789.515198 
	C587.054993,789.287659 578.735413,789.448792 569.559814,789.448792 
	C572.337158,778.691162 575.006653,768.351318 577.772522,757.611206 
M604.992859,738.573669 
	C606.726746,732.055176 608.460632,725.536682 610.170471,719.108459 
	C601.565857,715.028198 596.660278,717.517578 594.239014,726.966431 
	C590.170715,742.843384 586.160706,758.735901 582.270203,774.657043 
	C581.928772,776.054199 582.088867,778.296631 582.975098,779.147400 
	C587.087891,783.095947 594.364685,780.960266 595.760010,775.525452 
	C598.848633,763.495117 601.830933,751.437500 604.992859,738.573669 
z"/>
<path fill="#0E1034" opacity="1.000000" stroke="none" 
	d="
M755.922729,342.933777 
	C751.060425,344.799133 746.572937,346.561737 742.074585,348.295807 
	C737.006897,350.249298 734.027710,353.963898 732.726501,359.166290 
	C726.798096,382.869232 720.878479,406.574432 714.904785,430.265961 
	C709.904480,450.097015 704.844360,469.912994 699.782898,489.728546 
	C699.005188,492.773102 697.911743,495.744049 697.257629,498.811584 
	C696.218994,503.682678 693.021851,505.099182 688.486572,505.054810 
	C677.824707,504.950470 667.159668,505.098419 656.499329,504.929626 
	C645.383179,504.753662 639.960449,497.853821 642.631104,487.127838 
	C649.901062,457.929474 657.323425,428.769104 664.690186,399.594910 
	C668.718872,383.640778 672.591675,367.644836 676.843689,351.750366 
	C680.251953,339.010040 688.038269,332.900513 701.000732,332.816895 
	C724.990479,332.662109 748.982117,332.793549 772.972961,332.831757 
	C774.097290,332.833557 775.221191,333.086823 776.345337,333.222931 
	C776.517395,333.701385 776.689453,334.179810 776.861572,334.658264 
	C770.005249,337.378326 763.148987,340.098389 755.922729,342.933777 
z"/>
<path fill="#101636" opacity="1.000000" stroke="none" 
	d="
M604.924744,738.982361 
	C601.830933,751.437500 598.848633,763.495117 595.760010,775.525452 
	C594.364685,780.960266 587.087891,783.095947 582.975098,779.147400 
	C582.088867,778.296631 581.928772,776.054199 582.270203,774.657043 
	C586.160706,758.735901 590.170715,742.843384 594.239014,726.966431 
	C596.660278,717.517578 601.565857,715.028198 610.170471,719.108459 
	C608.460632,725.536682 606.726746,732.055176 604.924744,738.982361 
z"/>
</svg>